<svg width="78" height="26" viewBox="0 0 78 26" fill="none" xmlns="http://www.w3.org/2000/svg">
<path d="M8.78748 -1.1961e-06C10.6501 -1.1961e-06 11.2354 1.26907 11.7264 2.53615C11.9327 3.07421 16.773 15.6654 16.9185 16.0434C16.9572 16.1488 16.931 16.3219 16.7604 16.3845C16.5887 16.4462 14.0738 17.3751 13.9345 17.4248C13.7953 17.4756 13.6393 17.402 13.589 17.2697C13.5367 17.1394 12.4928 14.3944 12.3755 14.0881H5.2015C5.08842 14.3944 4.032 17.1454 3.98488 17.2697C3.93672 17.396 3.787 17.4815 3.63833 17.4248C3.48965 17.3691 0.965334 16.4402 0.814566 16.3845C0.67008 16.3308 0.604119 16.1747 0.654375 16.0434C0.832365 15.572 5.59936 3.18262 5.84226 2.53615C6.31551 1.28796 6.92067 -1.1961e-06 8.78748 -1.1961e-06ZM0.271173 22.53C0.120405 22.53 0 22.6493 0 22.7945V25.7374C0 25.8826 0.120405 26 0.271173 26H17.2965C17.4504 26 17.5708 25.8826 17.5708 25.7374V22.7945C17.5708 22.6493 17.4504 22.53 17.2965 22.53H0.271173ZM8.77072 4.11154L6.34587 11.0288H11.2354L8.80213 4.11154H8.77072ZM45.1571 15.4536C44.8001 15.568 44.5645 15.5958 44.2839 15.5958C43.7039 15.5958 43.3825 15.378 43.3825 14.8131C43.3825 14.2243 43.7908 14.0274 44.5928 14.0274C44.7886 14.0274 44.9812 14.0542 45.0713 14.0841V14.5058C45.0713 14.9603 45.0975 15.2587 45.1571 15.4536ZM47.2187 16.1279C46.7905 15.5103 46.6784 15.1463 46.6784 14.3675V12.7862C46.6784 11.9348 46.5737 11.6275 46.3371 11.3172C46.0073 10.8776 45.4576 10.6866 44.4473 10.6866C43.7322 10.6866 43.038 10.7602 42.3658 10.9233L42.6087 12.0472C43.0631 11.9865 43.5395 11.9348 43.8756 11.9348C44.9488 11.9348 45.0713 12.082 45.0713 12.8468V13.1323C44.8326 13.0716 44.5645 13.0278 44.2536 13.0278C42.6381 13.0278 41.7847 13.7787 41.7847 15.022C41.7847 16.1876 42.6967 16.8231 43.8076 16.8231C44.2222 16.8231 44.6556 16.7505 44.999 16.6172C45.2063 16.5317 45.2964 16.481 45.5644 16.3159C45.7257 16.5387 46.0492 16.7664 46.1811 16.8092L47.2187 16.1279ZM63.1991 15.4536C62.8399 15.568 62.6085 15.5958 62.3259 15.5958C61.7437 15.5958 61.4181 15.378 61.4181 14.8131C61.4181 14.2243 61.8317 14.0274 62.6358 14.0274C62.8316 14.0274 63.0253 14.0542 63.1132 14.0841V14.5058C63.1132 14.9603 63.1383 15.2587 63.1991 15.4536ZM65.2627 16.1279C64.8313 15.5103 64.7214 15.1463 64.7214 14.3675V12.7862C64.7214 11.9348 64.6146 11.6275 64.3759 11.3172C64.0503 10.8776 63.4995 10.6866 62.486 10.6866C61.772 10.6866 61.0736 10.7602 60.4015 10.9233L60.6412 12.0472C61.0967 11.9865 61.5741 11.9348 61.9196 11.9348C62.9865 11.9348 63.1132 12.082 63.1132 12.8468V13.1323C62.8745 13.0716 62.6085 13.0278 62.2913 13.0278C60.6737 13.0278 59.8172 13.7787 59.8172 15.022C59.8172 16.1876 60.7313 16.8231 61.8474 16.8231C62.2672 16.8231 62.6965 16.7505 63.0368 16.6172C63.2472 16.5317 63.3341 16.481 63.6021 16.3159C63.7655 16.5387 64.089 16.7664 64.222 16.8092L65.2627 16.1279ZM77.8414 16.6908C77.8414 16.6908 76.9556 14.8976 76.7389 14.4899C76.4949 14.0304 76.2688 13.7131 75.7704 13.5987V13.5729C76.1044 13.5122 76.3703 13.3203 76.6614 12.7335C76.9368 12.1616 77.0184 12.0383 77.1807 11.902C77.3398 11.7667 77.5576 11.8155 77.5576 11.8155L77.6393 10.7582C77.4079 10.7284 77.1514 10.7274 76.8865 10.7413C76.4467 10.7662 76.2195 10.8865 76.0028 11.0934C75.8332 11.2515 75.718 11.4883 75.5756 11.7598C75.4249 12.0562 75.3055 12.2949 75.1485 12.5962C74.9925 12.9055 74.9192 13.0448 74.4993 13.0448H74.2261V8.36133H72.6084V16.6908H74.2261V14.2959L74.447 14.2919C74.9108 14.2919 74.9925 14.4023 75.2375 14.8668C75.5243 15.4208 76.074 16.6908 76.074 16.6908H77.8414ZM32.2717 16.6908H34.1385L31.3147 8.50057C31.0174 8.40609 30.6499 8.34741 30.2573 8.34741C29.829 8.34741 29.6762 8.40111 29.3411 8.50057L26.353 16.6908H28.1444C28.1444 16.6908 28.3863 15.9728 28.6711 15.0826H31.766C32.0424 15.9718 32.2717 16.6908 32.2717 16.6908ZM29.1255 13.7091C29.1255 13.7091 29.6427 12.0651 29.7233 11.8095C29.9285 11.1471 30.2405 10.0949 30.2405 10.0949H30.2918C30.2918 10.0949 30.5808 11.1849 30.7693 11.7976C30.8405 12.0412 31.3346 13.7091 31.3346 13.7091H29.1255ZM49.9744 12.7722C49.4038 12.7722 48.9399 13.2148 48.9399 13.7569C48.9399 14.3029 49.4038 14.7425 49.9744 14.7425C50.5461 14.7425 51.0078 14.3029 51.0078 13.7569C51.0078 13.2148 50.5461 12.7722 49.9744 12.7722ZM36.355 8.36133H34.7332V16.6898H36.355V8.36133ZM68.5764 12.0104C69.4727 12.0283 69.5837 12.2043 69.5837 12.9184V16.6908H71.1908V12.7862C71.1908 11.9348 71.0861 11.6275 70.8474 11.3172C70.5176 10.8776 69.8695 10.6866 68.7733 10.6866C67.6886 10.6866 66.9976 10.796 66.1087 11.0477V16.6908H67.7326V12.082C68.1587 12.0233 68.2341 12.0104 68.5764 12.0104ZM40.3661 8.21314C39.3526 8.21314 38.8008 8.4041 38.4762 8.84271C38.2375 9.15401 38.1318 9.46829 38.1318 10.3216V11.0477H37.3266V12.2929H38.1318V16.6908H39.74L39.7358 12.2929H41.3387V11.0477H39.7358L39.74 10.3803C39.74 9.61648 39.8625 9.46829 40.9367 9.46829C41.0529 9.46829 41.1838 9.47426 41.323 9.4842L41.5764 8.28773C41.1796 8.23801 40.7733 8.21314 40.3661 8.21314ZM53.2693 8.29072C53.8211 8.25989 55.0544 8.21613 55.8282 8.21613C55.9695 8.21613 56.1161 8.21712 56.2627 8.22408C57.784 8.22408 58.6561 9.27634 58.6561 10.5116C58.6561 11.352 58.2509 11.91 57.3013 12.2421C58.4184 12.4769 59.0037 13.3053 59.0037 14.3188C59.0037 15.0627 58.7828 15.6535 58.3776 16.0563C57.852 16.5476 57.0563 16.8231 55.9967 16.8231C55.0544 16.8231 53.8713 16.7953 53.2693 16.7615V8.29072ZM55.8282 9.65527C55.5601 9.65527 55.2282 9.66024 54.8995 9.67118V11.6713H55.8292C56.1978 11.6713 56.4941 11.5738 56.6961 11.3858C56.8888 11.2088 56.9893 10.9581 56.9893 10.6608C56.9893 10.0213 56.6249 9.65925 55.9475 9.65527H55.8282ZM55.8617 15.387H55.9318C56.7767 15.387 57.294 14.9603 57.3002 14.101C57.2919 13.7927 57.1673 13.5082 56.9443 13.3023C56.7003 13.0696 56.3548 12.9483 55.9496 12.9483H54.8995V15.378C55.1958 15.384 55.5224 15.385 55.8617 15.387Z" fill="#EE2A23"/>
</svg>
