<svg width="24" height="22" viewBox="0 0 24 22" fill="none" xmlns="http://www.w3.org/2000/svg">
<path fill-rule="evenodd" clip-rule="evenodd" d="M0 0.908513C0 0.406755 0.406755 0 0.908513 0H3.35569C3.76656 0 4.1263 0.275762 4.23302 0.672536L5.06543 3.76733L22.9936 4.96472C23.4708 4.99659 23.8416 5.39296 23.8416 5.87122V13.3153C23.8416 13.7896 23.4766 14.1841 23.0037 14.221L7.09709 15.4617C6.66108 15.4957 6.26271 15.2143 6.14911 14.7919L3.47947 4.86652L2.65925 1.81703H0.908513C0.406755 1.81703 0 1.41027 0 0.908513ZM9.13211 6.89441C9.01199 6.40724 8.51969 6.10968 8.03252 6.2298C7.54535 6.34991 7.2478 6.84221 7.36791 7.32938L8.5915 12.2921C8.71161 12.7793 9.20391 13.0768 9.69108 12.9567C10.1783 12.8366 10.4758 12.3443 10.3557 11.8571L9.13211 6.89441ZM13.6294 6.52243C14.1263 6.45243 14.5858 6.79846 14.6558 7.29531L15.2676 11.6377C15.3376 12.1345 14.9916 12.5941 14.4947 12.6641C13.9979 12.7341 13.5384 12.388 13.4684 11.8912L12.8566 7.54881C12.7866 7.05196 13.1326 6.59243 13.6294 6.52243ZM20.1708 7.73223C20.1708 7.23047 19.764 6.82372 19.2623 6.82372C18.7605 6.82372 18.3537 7.23047 18.3537 7.73223V11.4543C18.3537 11.956 18.7605 12.3628 19.2623 12.3628C19.764 12.3628 20.1708 11.956 20.1708 11.4543V7.73223ZM11.9207 19.5186C11.9207 20.8891 10.8251 22 9.47356 22C8.12202 22 7.02639 20.8891 7.02639 19.5186C7.02639 18.1482 8.12202 17.0373 9.47356 17.0373C10.8251 17.0373 11.9207 18.1482 11.9207 19.5186ZM19.2623 22C20.6138 22 21.7095 20.8891 21.7095 19.5186C21.7095 18.1482 20.6138 17.0373 19.2623 17.0373C17.9108 17.0373 16.8151 18.1482 16.8151 19.5186C16.8151 20.8891 17.9108 22 19.2623 22Z" fill="white"/>
</svg>
