<svg width="70" height="28" viewBox="0 0 70 28" fill="none" xmlns="http://www.w3.org/2000/svg">
<path d="M33.1051 13.6079V21.7725H30.5203V1.60955H37.3758C38.1941 1.59242 39.0077 1.73785 39.7697 2.03744C40.5316 2.33704 41.2268 2.78487 41.8151 3.35509C42.4093 3.89068 42.8823 4.54754 43.2021 5.2815C43.522 6.01546 43.6813 6.80953 43.6695 7.61033C43.6865 8.41542 43.5296 9.21467 43.2095 9.95331C42.8894 10.6919 42.4137 11.3525 41.8151 11.8897C40.6163 13.0352 39.1365 13.6074 37.3758 13.6063H33.1051V13.6079ZM33.1051 4.09191V11.1304H37.44C37.9153 11.1445 38.3882 11.0591 38.8286 10.8795C39.269 10.7 39.6672 10.4304 39.9976 10.0879C40.3264 9.76762 40.5877 9.38457 40.7661 8.96137C40.9445 8.53818 41.0365 8.08342 41.0365 7.62401C41.0365 7.16459 40.9445 6.70984 40.7661 6.28664C40.5877 5.86344 40.3264 5.4804 39.9976 5.16015C39.6713 4.81041 39.2745 4.53416 38.8336 4.34972C38.3927 4.16528 37.9177 4.07685 37.44 4.0903H33.1051V4.09191Z" fill="#5F6368"/>
<path d="M49.6262 7.52662C51.5368 7.52662 53.0449 8.03821 54.1506 9.0614C55.2563 10.0846 55.8086 11.4875 55.8075 13.27V21.7725H53.335V19.858H53.2226C52.1523 21.4346 50.7287 22.2229 48.9519 22.2229C47.4352 22.2229 46.1664 21.7725 45.1452 20.8715C44.6552 20.458 44.2634 19.9402 43.9985 19.3557C43.7335 18.7713 43.602 18.1349 43.6136 17.4931C43.6136 16.0655 44.152 14.9303 45.2287 14.0873C46.3055 13.2443 47.743 12.8217 49.5412 12.8195C51.076 12.8195 52.3401 13.1011 53.3334 13.6641V13.0721C53.3363 12.6346 53.242 12.2018 53.0573 11.8053C52.8727 11.4088 52.6023 11.0584 52.2657 10.7796C51.5822 10.1616 50.6913 9.82443 49.7707 9.83523C48.3268 9.83523 47.1843 10.4455 46.343 11.666L44.0663 10.2294C45.3186 8.42754 47.1719 7.52662 49.6262 7.52662ZM46.282 17.5494C46.2802 17.879 46.3571 18.2043 46.5063 18.4981C46.6554 18.792 46.8724 19.0458 47.1393 19.2386C47.711 19.6892 48.4206 19.9279 49.1478 19.9143C50.2386 19.9125 51.2842 19.4774 52.0554 18.7045C52.9117 17.8969 53.3398 16.9493 53.3398 15.8618C52.5338 15.2182 51.41 14.8965 49.9682 14.8965C48.9182 14.8965 48.0427 15.1501 47.3416 15.6574C46.6336 16.1723 46.282 16.7981 46.282 17.5494Z" fill="#5F6368"/>
<path d="M70 7.97717L61.3688 27.8538H58.7004L61.9034 20.899L56.2279 7.97717H59.0376L63.1397 17.8873H63.1958L67.1856 7.97717H70Z" fill="#5F6368"/>
<path d="M22.6597 11.8478C22.6606 11.0585 22.594 10.2705 22.4606 9.49258H11.5591V13.9538H17.803C17.6752 14.6663 17.4048 15.3455 17.008 15.9504C16.6112 16.5554 16.0963 17.0736 15.4942 17.4738V20.3696H19.2207C21.4026 18.3538 22.6597 15.3727 22.6597 11.8478Z" fill="#4285F4"/>
<path d="M11.5592 23.1673C14.6787 23.1673 17.3053 22.1409 19.2207 20.3713L15.4943 17.4754C14.4572 18.1801 13.1214 18.5823 11.5592 18.5823C8.54403 18.5823 5.98484 16.5456 5.06969 13.801H1.2309V16.7853C2.19303 18.7037 3.66836 20.3165 5.49217 21.4434C7.31598 22.5704 9.41649 23.1672 11.5592 23.1673Z" fill="#34A853"/>
<path d="M5.0697 13.8011C4.58589 12.3629 4.58589 10.8054 5.0697 9.36725V6.38294H1.23091C0.421525 7.99681 0 9.77797 0 11.5842C0 13.3904 0.421525 15.1715 1.23091 16.7854L5.0697 13.8011Z" fill="#FBBC04"/>
<path d="M11.5592 4.58581C13.2077 4.55883 14.8006 5.18296 15.9936 6.32331L19.293 3.01724C17.2008 1.0482 14.4293 -0.0328301 11.5592 0.000759972C9.41649 0.000857827 7.31598 0.597709 5.49217 1.72468C3.66836 2.85165 2.19303 4.46438 1.2309 6.38283L5.06969 9.36714C5.98484 6.62254 8.54403 4.58581 11.5592 4.58581Z" fill="#EA4335"/>
</svg>
