<svg width="24" height="24" viewBox="0 0 24 24" fill="none" xmlns="http://www.w3.org/2000/svg">
<path d="M4.96464 5.03536L4.32825 4.39896L3.69185 5.03536L4.32825 5.67175L4.96464 5.03536ZM8.42929 8.5L9.07198 9.13004L9.69579 8.4937L9.06568 7.8636L8.42929 8.5ZM5.03536 4.96464L5.67175 4.32825L5.03536 3.69185L4.39896 4.32825L5.03536 4.96464ZM8.5 8.42929L7.8636 9.06568L8.4937 9.69579L9.13004 9.07198L8.5 8.42929ZM15.5 8.42929L14.87 9.07198L15.5063 9.69579L16.1364 9.06568L15.5 8.42929ZM18.9646 4.96464L19.601 4.32825L18.9647 3.69185L18.3282 4.32825L18.9646 4.96464ZM19.0354 5.03536L19.6718 5.67175L20.3081 5.03536L19.6718 4.39897L19.0354 5.03536ZM15.5707 8.5L14.9343 7.8636L14.3042 8.4937L14.928 9.13004L15.5707 8.5ZM15.5707 15.5L14.928 14.87L14.3042 15.5063L14.9343 16.1364L15.5707 15.5ZM19.0354 18.9646L19.6718 19.601L20.3081 18.9646L19.6718 18.3282L19.0354 18.9646ZM18.9646 19.0354L18.3282 19.6718L18.9646 20.3081L19.601 19.6718L18.9646 19.0354ZM15.5 15.5707L16.1364 14.9343L15.5063 14.3042L14.87 14.928L15.5 15.5707ZM8.5 15.5707L9.13004 14.928L8.4937 14.3042L7.8636 14.9343L8.5 15.5707ZM5.03536 19.0354L4.39897 19.6718L5.03536 20.3081L5.67175 19.6718L5.03536 19.0354ZM4.96464 18.9646L4.32825 18.3282L3.69185 18.9647L4.32825 19.601L4.96464 18.9646ZM8.42929 15.5L9.06568 16.1364L9.69579 15.5063L9.07198 14.87L8.42929 15.5ZM12 22.9C18.0199 22.9 22.9 18.0199 22.9 12H21.1C21.1 17.0258 17.0258 21.1 12 21.1V22.9ZM1.1 12C1.1 18.0199 5.9801 22.9 12 22.9V21.1C6.97421 21.1 2.9 17.0258 2.9 12H1.1ZM12 1.1C5.9801 1.1 1.1 5.9801 1.1 12H2.9C2.9 6.97421 6.97421 2.9 12 2.9V1.1ZM22.9 12C22.9 5.9801 18.0199 1.1 12 1.1V2.9C17.0258 2.9 21.1 6.97421 21.1 12H22.9ZM4.32825 5.67175L7.79289 9.13639L9.06568 7.8636L5.60104 4.39896L4.32825 5.67175ZM4.39896 4.32825L4.32825 4.39896L5.60104 5.67175L5.67175 5.60104L4.39896 4.32825ZM9.13639 7.79289L5.67175 4.32825L4.39896 5.60104L7.8636 9.06568L9.13639 7.79289ZM9.13004 9.07198C9.8705 8.34609 10.8823 7.9 12 7.9V6.1C10.3923 6.1 8.93325 6.74423 7.86996 7.7866L9.13004 9.07198ZM12 7.9C13.1177 7.9 14.1295 8.34609 14.87 9.07198L16.13 7.7866C15.0668 6.74423 13.6077 6.1 12 6.1V7.9ZM18.3282 4.32825L14.8636 7.79289L16.1364 9.06568L19.601 5.60104L18.3282 4.32825ZM19.6718 4.39897L19.601 4.32825L18.3282 5.60103L18.399 5.67175L19.6718 4.39897ZM16.2071 9.13639L19.6718 5.67175L18.399 4.39896L14.9343 7.8636L16.2071 9.13639ZM14.928 9.13004C15.6539 9.8705 16.1 10.8823 16.1 12H17.9C17.9 10.3923 17.2558 8.93325 16.2134 7.86996L14.928 9.13004ZM16.1 12C16.1 13.1177 15.6539 14.1295 14.928 14.87L16.2134 16.13C17.2558 15.0668 17.9 13.6077 17.9 12H16.1ZM19.6718 18.3282L16.2071 14.8636L14.9343 16.1364L18.399 19.601L19.6718 18.3282ZM19.601 19.6718L19.6718 19.601L18.399 18.3282L18.3282 18.399L19.601 19.6718ZM14.8636 16.2071L18.3282 19.6718L19.601 18.399L16.1364 14.9343L14.8636 16.2071ZM14.87 14.928C14.1295 15.6539 13.1177 16.1 12 16.1V17.9C13.6077 17.9 15.0668 17.2558 16.13 16.2134L14.87 14.928ZM12 16.1C10.8823 16.1 9.8705 15.6539 9.13004 14.928L7.86996 16.2134C8.93325 17.2558 10.3923 17.9 12 17.9V16.1ZM5.67175 19.6718L9.13639 16.2071L7.8636 14.9343L4.39896 18.399L5.67175 19.6718ZM4.32825 19.601L4.39897 19.6718L5.67175 18.399L5.60103 18.3282L4.32825 19.601ZM7.79289 14.8636L4.32825 18.3282L5.60104 19.601L9.06568 16.1364L7.79289 14.8636ZM9.07198 14.87C8.34609 14.1295 7.9 13.1177 7.9 12H6.1C6.1 13.6077 6.74423 15.0668 7.7866 16.13L9.07198 14.87ZM7.9 12C7.9 10.8823 8.34609 9.8705 9.07198 9.13004L7.7866 7.86996C6.74423 8.93325 6.1 10.3923 6.1 12H7.9Z" fill="white"/>
</svg>
