<svg width="172" height="139" viewBox="0 0 172 139" fill="none" xmlns="http://www.w3.org/2000/svg">
<g filter="url(#filter0_d_66_822)">
<rect x="40" y="15" width="92" height="59" rx="3" fill="white"/>
<path d="M94.0285 59.0002H77.9299V30.0094H94.0285V59.0002Z" fill="#FF5F00"/>
<path d="M78.9611 44.5025C78.9611 38.6215 81.709 33.383 85.9882 30.0071C82.859 27.5384 78.9097 26.065 74.6176 26.065C64.4566 26.065 56.22 34.3196 56.22 44.5025C56.22 54.6853 64.4566 62.94 74.6176 62.94C78.9097 62.94 82.859 61.4665 85.9882 58.9979C81.709 55.6219 78.9611 50.3834 78.9611 44.5025Z" fill="#EB001B"/>
<path d="M115.74 44.5025C115.74 54.6853 107.503 62.94 97.3425 62.94C93.0504 62.94 89.1011 61.4665 85.9707 58.9979C90.2511 55.6219 92.9989 50.3834 92.9989 44.5025C92.9989 38.6215 90.2511 33.383 85.9707 30.0071C89.1011 27.5384 93.0504 26.065 97.3425 26.065C107.503 26.065 115.74 34.3196 115.74 44.5025Z" fill="#F79E1B"/>
<path d="M70.064 44.6191C70.064 43.8137 70.5906 43.1521 71.4513 43.1521C72.2736 43.1521 72.8288 43.7852 72.8288 44.6191C72.8288 45.453 72.2736 46.086 71.4513 46.086C70.5906 46.086 70.064 45.4244 70.064 44.6191ZM73.7661 44.6191V42.3281H72.7718V42.8844C72.4565 42.4719 71.978 42.2129 71.3276 42.2129C70.0454 42.2129 69.0402 43.2202 69.0402 44.6191C69.0402 46.0191 70.0454 47.0252 71.3276 47.0252C71.978 47.0252 72.4565 46.7663 72.7718 46.3538V46.91H73.7661V44.6191ZM107.364 44.6191C107.364 43.8137 107.891 43.1521 108.751 43.1521C109.575 43.1521 110.129 43.7852 110.129 44.6191C110.129 45.453 109.575 46.086 108.751 46.086C107.891 46.086 107.364 45.4244 107.364 44.6191ZM111.067 44.6191V40.4881H110.072V42.8844C109.757 42.4719 109.278 42.2129 108.628 42.2129C107.345 42.2129 106.34 43.2202 106.34 44.6191C106.34 46.0191 107.345 47.0252 108.628 47.0252C109.278 47.0252 109.757 46.7663 110.072 46.3538V46.91H111.067V44.6191ZM86.1074 43.105C86.748 43.105 87.1597 43.5076 87.2648 44.2164H84.892C84.9982 43.5548 85.399 43.105 86.1074 43.105ZM86.1272 42.2129C84.7869 42.2129 83.8496 43.1905 83.8496 44.6191C83.8496 46.0762 84.8252 47.0252 86.1939 47.0252C86.8827 47.0252 87.5134 46.853 88.0685 46.3834L87.5813 45.645C87.198 45.9511 86.7097 46.1244 86.2509 46.1244C85.6103 46.1244 85.0267 45.8271 84.8833 45.002H88.2788C88.2886 44.878 88.2985 44.7529 88.2985 44.6191C88.2886 43.1905 87.4083 42.2129 86.1272 42.2129ZM98.1324 44.6191C98.1324 43.8137 98.6591 43.1521 99.5197 43.1521C100.342 43.1521 100.897 43.7852 100.897 44.6191C100.897 45.453 100.342 46.086 99.5197 46.086C98.6591 46.086 98.1324 45.4244 98.1324 44.6191ZM101.834 44.6191V42.3281H100.84V42.8844C100.524 42.4719 100.046 42.2129 99.396 42.2129C98.1138 42.2129 97.1086 43.2202 97.1086 44.6191C97.1086 46.0191 98.1138 47.0252 99.396 47.0252C100.046 47.0252 100.524 46.7663 100.84 46.3538V46.91H101.834V44.6191ZM92.5174 44.6191C92.5174 46.0092 93.4832 47.0252 94.957 47.0252C95.6457 47.0252 96.1045 46.8716 96.6016 46.4788L96.1242 45.6735C95.7508 45.9423 95.3588 46.086 94.9274 46.086C94.1336 46.0762 93.5499 45.5012 93.5499 44.6191C93.5499 43.7369 94.1336 43.162 94.9274 43.1521C95.3588 43.1521 95.7508 43.2959 96.1242 43.5647L96.6016 42.7593C96.1045 42.3665 95.6457 42.2129 94.957 42.2129C93.4832 42.2129 92.5174 43.2289 92.5174 44.6191ZM105.336 42.2129C104.762 42.2129 104.389 42.4817 104.131 42.8844V42.3281H103.145V46.91H104.14V44.3415C104.14 43.5833 104.466 43.162 105.116 43.162C105.318 43.162 105.528 43.1905 105.738 43.2772L106.045 42.338C105.825 42.2513 105.538 42.2129 105.336 42.2129ZM78.6836 42.6924C78.2051 42.3764 77.5459 42.2129 76.8188 42.2129C75.6603 42.2129 74.9147 42.7692 74.9147 43.6799C74.9147 44.4271 75.4698 44.8879 76.4925 45.0316L76.9623 45.0986C77.5076 45.1754 77.7649 45.3191 77.7649 45.578C77.7649 45.9324 77.4014 46.1343 76.7225 46.1343C76.0337 46.1343 75.5366 45.9138 75.2016 45.6548L74.7329 46.4306C75.2782 46.8332 75.9669 47.0252 76.7126 47.0252C78.0331 47.0252 78.7985 46.402 78.7985 45.5298C78.7985 44.7244 78.1963 44.3031 77.201 44.1594L76.7323 44.0913C76.302 44.0343 75.9571 43.9487 75.9571 43.6415C75.9571 43.3057 76.2823 43.105 76.8276 43.105C77.4112 43.105 77.9762 43.3255 78.2532 43.4977L78.6836 42.6924ZM91.5122 42.2129C90.9384 42.2129 90.5651 42.4817 90.3077 42.8844V42.3281H89.3223V46.91H90.3165V44.3415C90.3165 43.5833 90.6417 43.162 91.2921 43.162C91.4936 43.162 91.7038 43.1905 91.9141 43.2772L92.2207 42.338C92.0006 42.2513 91.7137 42.2129 91.5122 42.2129ZM83.0273 42.3281H81.4013V40.938H80.3961V42.3281H79.4686V43.2388H80.3961V45.329C80.3961 46.3922 80.8078 47.0252 81.9838 47.0252C82.4152 47.0252 82.9123 46.8914 83.2277 46.6709L82.9408 45.8172C82.6441 45.9895 82.3189 46.0762 82.0604 46.0762C81.5633 46.0762 81.4013 45.769 81.4013 45.3092V43.2388H83.0273V42.3281ZM68.1609 46.91V44.0343C68.1609 42.9513 67.4722 42.2228 66.3619 42.2129C65.7783 42.2031 65.176 42.3852 64.7545 43.0281C64.4391 42.5201 63.942 42.2129 63.2434 42.2129C62.7551 42.2129 62.2776 42.3567 61.9043 42.8932V42.3281H60.9089V46.91H61.913V44.37C61.913 43.5746 62.3532 43.1521 63.0332 43.1521C63.6934 43.1521 64.0274 43.5833 64.0274 44.3601V46.91H65.0326V44.37C65.0326 43.5746 65.4914 43.1521 66.1516 43.1521C66.8305 43.1521 67.1557 43.5833 67.1557 44.3601V46.91H68.1609Z" fill="white"/>
</g>
<defs>
<filter id="filter0_d_66_822" x="0" y="0" width="172" height="139" filterUnits="userSpaceOnUse" color-interpolation-filters="sRGB">
<feFlood flood-opacity="0" result="BackgroundImageFix"/>
<feColorMatrix in="SourceAlpha" type="matrix" values="0 0 0 0 0 0 0 0 0 0 0 0 0 0 0 0 0 0 127 0" result="hardAlpha"/>
<feOffset dy="25"/>
<feGaussianBlur stdDeviation="20"/>
<feColorMatrix type="matrix" values="0 0 0 0 0 0 0 0 0 0 0 0 0 0 0 0 0 0 0.03 0"/>
<feBlend mode="normal" in2="BackgroundImageFix" result="effect1_dropShadow_66_822"/>
<feBlend mode="normal" in="SourceGraphic" in2="effect1_dropShadow_66_822" result="shape"/>
</filter>
</defs>
</svg>
