<svg width="24" height="24" viewBox="0 0 24 24" fill="none" xmlns="http://www.w3.org/2000/svg">
<path fill-rule="evenodd" clip-rule="evenodd" d="M1.89998 12C1.89998 6.42193 6.4219 1.90001 12 1.90001C17.5741 1.90001 22.1 6.49306 22.1 12C22.1 15.4184 20.5845 17.5467 19.8274 18.3983C19.4971 18.7698 19.5305 19.3387 19.902 19.6689C20.2735 19.9992 20.8423 19.9658 21.1726 19.5943C22.1223 18.5261 23.9 15.9901 23.9 12C23.9 5.50695 18.5762 0.100006 12 0.100006C5.42779 0.100006 0.0999756 5.42782 0.0999756 12C0.0999756 18.5762 5.50692 23.9 12 23.9C15.231 23.9 17.2119 22.6727 18.1049 21.0612C18.5393 20.2774 18.6935 19.4334 18.607 18.6788C18.5422 18.1135 18.3323 17.5432 17.9482 17.1098C18.0921 16.6742 17.9295 16.1904 17.5418 15.9319L15.7432 14.7328C15.2705 14.4177 14.6319 14.5454 14.3168 15.0181L13.8935 15.653C13.809 15.7797 13.6973 15.8878 13.5501 15.9267C13.0677 16.0542 11.7873 16.1117 9.83776 14.1622C7.88825 12.2127 7.94579 10.9322 8.07324 10.4499C8.11214 10.3027 8.22027 10.1909 8.347 10.1065L8.98187 9.68321C9.45455 9.36809 9.58228 8.72945 9.26716 8.25677L8.06809 6.45816C7.79304 6.04558 7.26279 5.88796 6.80703 6.08328L6.26613 6.3151C5.85522 6.4912 5.52004 6.80725 5.32011 7.2071C5.15308 7.54117 5.02362 7.89296 5.00607 8.26604C4.9508 9.44177 5.2086 12.3384 8.43509 15.5649C11.6616 18.7914 14.5582 19.0492 15.7339 18.9939C16.1034 18.9765 16.452 18.8494 16.7831 18.6847C16.7981 18.7444 16.8103 18.8106 16.8187 18.8837C16.8612 19.2541 16.7888 19.7226 16.5305 20.1888C16.0381 21.0773 14.7689 22.1 12 22.1C6.49303 22.1 1.89998 17.5741 1.89998 12ZM11.1 5.00001C11.1 4.50295 11.5029 4.10001 12 4.10001C16.363 4.10001 19.9 7.63696 19.9 12C19.9 12.4971 19.497 12.9 19 12.9C18.5029 12.9 18.1 12.4971 18.1 12C18.1 8.63107 15.3689 5.90001 12 5.90001C11.5029 5.90001 11.1 5.49706 11.1 5.00001ZM12 7.10001C11.5029 7.10001 11.1 7.50295 11.1 8.00001C11.1 8.49706 11.5029 8.90001 12 8.90001C13.7121 8.90001 15.1 10.2879 15.1 12C15.1 12.4971 15.5029 12.9 16 12.9C16.497 12.9 16.9 12.4971 16.9 12C16.9 9.29381 14.7062 7.10001 12 7.10001Z" fill="#262F56"/>
</svg>
