<svg width="24" height="24" viewBox="0 0 24 24" fill="none" xmlns="http://www.w3.org/2000/svg">
<g clip-path="url(#clip0_28_409)">
<path d="M21.923 12.923V9.92303C21.923 8.77789 20.9914 7.84607 19.8461 7.84607H18.8611L20.0477 3.89117C20.1021 3.71008 20.0799 3.51434 19.9863 3.34991C19.8928 3.18549 19.736 3.06647 19.5526 3.02069L16.3846 2.22876V0.692322C16.3846 0.309998 16.0746 0 15.6923 0H3.69232C3.31 0 3 0.309998 3 0.692322V7.84607H2.07697C0.931641 7.84607 0 8.77789 0 9.92303V21.923C0 23.0684 0.931641 24 2.07697 24H19.8461C20.9914 24 21.923 23.0684 21.923 21.923V18.923C23.0684 18.923 24 17.9914 24 16.8461V15C24 13.8549 23.0684 12.923 21.923 12.923ZM18.5131 4.18799L17.4849 7.61536H16.3846V3.65588L18.5131 4.18799ZM4.38464 1.38464H15V7.84607H4.38464V1.38464ZM20.5384 21.923C20.5384 22.3048 20.2278 22.6154 19.8461 22.6154H2.07697C1.69519 22.6154 1.38464 22.3048 1.38464 21.923V9.92303C1.38464 9.54126 1.69519 9.23071 2.07697 9.23071H19.8461C20.2278 9.23071 20.5384 9.54126 20.5384 9.92303V12.923H18C16.8549 12.923 15.923 13.8549 15.923 15V16.8461C15.923 17.9914 16.8549 18.923 18 18.923H20.5384V21.923ZM22.6154 16.8461C22.6154 17.2278 22.3048 17.5384 21.923 17.5384H18C17.6182 17.5384 17.3077 17.2278 17.3077 16.8461V15C17.3077 14.6182 17.6182 14.3077 18 14.3077H21.923C22.3048 14.3077 22.6154 14.6182 22.6154 15V16.8461Z" fill="#2A3256"/>
<path d="M20.3078 15.2307H20.0771C19.6948 15.2307 19.3848 15.5407 19.3848 15.923C19.3848 16.3054 19.6948 16.6154 20.0771 16.6154H20.3078C20.6901 16.6154 21.0001 16.3054 21.0001 15.923C21.0001 15.5407 20.6901 15.2307 20.3078 15.2307Z" fill="#2A3256"/>
<path d="M13.3846 3.69232H12.6923C12.565 3.69232 12.4615 3.58887 12.4615 3.46161V3C12.4615 2.61768 12.1516 2.30768 11.7692 2.30768C11.3869 2.30768 11.0769 2.61768 11.0769 3V3.46161C11.0769 4.35223 11.8015 5.07697 12.6923 5.07697H13.3846C13.7669 5.07697 14.0769 4.76697 14.0769 4.38464C14.0769 4.00232 13.7669 3.69232 13.3846 3.69232Z" fill="#2A3256"/>
<path d="M7.6153 2.30768C7.23297 2.30768 6.92297 2.61768 6.92297 3V3.46161C6.92297 3.58887 6.81952 3.69232 6.69226 3.69232H5.99994C5.61761 3.69232 5.30762 4.00232 5.30762 4.38464C5.30762 4.76697 5.61761 5.07697 5.99994 5.07697H6.69226C7.58289 5.07697 8.30762 4.35223 8.30762 3.46161V3C8.30762 2.61768 7.99762 2.30768 7.6153 2.30768Z" fill="#2A3256"/>
</g>
<defs>
<clipPath id="clip0_28_409">
<rect width="24" height="24" fill="white"/>
</clipPath>
</defs>
</svg>
