<svg width="24" height="24" viewBox="0 0 24 24" fill="none" xmlns="http://www.w3.org/2000/svg">
<g clip-path="url(#clip0_46_713)">
<path d="M21.414 1.875H2.586C1.15997 1.875 0 3.03497 0 4.461V19.5234C0 20.9495 1.15997 22.1094 2.586 22.1094H21.414C22.84 22.1094 24 20.9495 24 19.5234V4.461C24 3.03497 22.84 1.875 21.414 1.875ZM22.5938 19.5234C22.5938 20.174 22.0646 20.7032 21.414 20.7032H2.586C1.93542 20.7032 1.40625 20.174 1.40625 19.5234V4.461C1.40625 3.81042 1.93542 3.28125 2.586 3.28125H21.414C22.0646 3.28125 22.5938 3.81042 22.5938 4.461V19.5234Z" fill="#2A3256"/>
<path d="M19.5314 5.64075H4.46875C4.08057 5.64075 3.76562 5.95551 3.76562 6.34387C3.76562 6.73206 4.08057 7.047 4.46875 7.047H19.5314C19.9196 7.047 20.2345 6.73206 20.2345 6.34387C20.2345 5.95551 19.9196 5.64075 19.5314 5.64075Z" fill="#2A3256"/>
<path d="M5.22168 9.40637C4.8335 9.40637 4.51855 9.72113 4.51855 10.1095V17.6408C4.51855 18.029 4.8335 18.3439 5.22168 18.3439C5.61005 18.3439 5.9248 18.029 5.9248 17.6408V10.1095C5.9248 9.72113 5.61005 9.40637 5.22168 9.40637Z" fill="#2A3256"/>
<path d="M12 9.40637C11.6116 9.40637 11.2969 9.72113 11.2969 10.1095V17.6408C11.2969 18.029 11.6116 18.3439 12 18.3439C12.3884 18.3439 12.7031 18.029 12.7031 17.6408V10.1095C12.7031 9.72113 12.3884 9.40637 12 9.40637Z" fill="#2A3256"/>
<path d="M18.7783 9.40637C18.39 9.40637 18.0752 9.72113 18.0752 10.1095V17.6408C18.0752 18.029 18.39 18.3439 18.7783 18.3439C19.1665 18.3439 19.4814 18.029 19.4814 17.6408V10.1095C19.4814 9.72113 19.1665 9.40637 18.7783 9.40637Z" fill="#2A3256"/>
<path d="M8.98749 9.40637H8.23437C7.84601 9.40637 7.53125 9.72113 7.53125 10.1095V17.6408C7.53125 18.029 7.84601 18.3439 8.23437 18.3439H8.98749C9.37567 18.3439 9.69061 18.029 9.69061 17.6408V10.1095C9.69061 9.72113 9.37585 9.40637 8.98749 9.40637Z" fill="#2A3256"/>
<path d="M15.7653 9.40637H15.0122C14.624 9.40637 14.3091 9.72113 14.3091 10.1095V17.6408C14.3091 18.029 14.624 18.3439 15.0122 18.3439H15.7653C16.1537 18.3439 16.4684 18.029 16.4684 17.6408V10.1095C16.4684 9.72113 16.1537 9.40637 15.7653 9.40637Z" fill="#2A3256"/>
</g>
<defs>
<clipPath id="clip0_46_713">
<rect width="24" height="24" fill="white"/>
</clipPath>
</defs>
</svg>
