<svg width="162" height="187" viewBox="0 0 162 187" fill="none" xmlns="http://www.w3.org/2000/svg">
<g opacity="0.5">
<path opacity="0.5" d="M92.0057 0.137176L3.62548 0.348259C2.66242 0.350166 1.73955 0.727959 1.05971 1.3986C0.379874 2.06923 -0.00129222 2.97783 3.29164e-06 3.92466L0.402562 164.09C0.403842 164.559 0.499079 165.024 0.682827 165.456C0.866576 165.889 1.13524 166.282 1.47349 166.613C1.81173 166.944 2.21292 167.206 2.65416 167.384C3.09541 167.562 3.56805 167.654 4.04512 167.652L92.4254 167.441C93.3884 167.439 94.311 167.06 94.9904 166.389C95.6698 165.718 96.0503 164.809 96.0484 163.862L95.6385 3.69679C95.6353 2.75162 95.2511 1.84625 94.5702 1.17903C93.8892 0.511818 92.9671 0.137171 92.0057 0.137176Z" fill="url(#paint0_linear_4_546)"/>
<path opacity="0.5" d="M91.024 7.67367e-06L4.61783 0.207582C2.77993 0.211997 1.29365 1.68039 1.29814 3.48734L1.69232 162.091C1.69681 163.898 3.19037 165.359 5.02828 165.355L91.4345 165.147C93.2724 165.143 94.7586 163.674 94.7542 161.867L94.36 3.26377C94.3555 1.45683 92.8619 -0.00440752 91.024 7.67367e-06Z" fill="#DEDEDE"/>
<path opacity="0.5" d="M92.1301 45.7637L92.0374 7.62503C92.0348 6.70365 91.6602 5.82097 90.9959 5.17103C90.3317 4.52108 89.4321 4.15706 88.4949 4.15897L71.2092 4.19975C70.9447 5.95168 70.0513 7.55273 68.6905 8.71331C67.3297 9.8739 65.5913 10.5174 63.7899 10.5274L31.6461 10.6042C29.8446 10.6029 28.103 9.96783 26.7364 8.81385C25.3698 7.65986 24.4683 6.06314 24.1951 4.31249L7.16799 4.35326C6.23082 4.3558 5.33302 4.7241 4.67194 5.37719C4.01086 6.03028 3.6406 6.91473 3.64254 7.83612L3.73769 46.2962L4.01339 157.752C4.01791 158.674 4.39437 159.556 5.06002 160.204C5.72568 160.853 6.62605 161.215 7.56323 161.211L88.8901 161.017C89.8243 161.012 90.7185 160.643 91.3773 159.992C92.0361 159.341 92.4058 158.46 92.4058 157.541L92.1301 45.7637Z" fill="#1A72DD"/>
<path opacity="0.5" d="M56.8652 6.08482L37.1054 6.37643C36.8359 6.38041 36.6207 6.59839 36.6248 6.86331L36.6296 7.1775C36.6336 7.44242 36.8554 7.65395 37.1248 7.64998L56.8846 7.35836C57.1541 7.35438 57.3692 7.1364 57.3652 6.87148L57.3604 6.55729C57.3564 6.29238 57.1346 6.08084 56.8652 6.08482Z" fill="#DBDBDB"/>
<path opacity="0.5" d="M61.7798 7.28617C62.2095 7.27983 62.5527 6.93215 62.5463 6.5096C62.5398 6.08706 62.1862 5.74966 61.7564 5.756C61.3266 5.76234 60.9834 6.11003 60.9899 6.53257C60.9963 6.95512 61.35 7.29252 61.7798 7.28617Z" fill="#DBDBDB"/>
<path opacity="0.5" d="M83.852 24.833H40.5244V28.2295H83.852V24.833Z" fill="#448BE2"/>
<path opacity="0.5" d="M83.852 31.626H40.5244V35.0225H83.852V31.626Z" fill="#448BE2"/>
<path opacity="0.5" d="M19.0521 36.6104C23.5714 36.6104 27.235 32.9913 27.235 28.527C27.235 24.0626 23.5714 20.4435 19.0521 20.4435C14.5328 20.4435 10.8691 24.0626 10.8691 28.527C10.8691 32.9913 14.5328 36.6104 19.0521 36.6104Z" fill="#F5F5F5"/>
<path opacity="0.5" d="M22.5775 34.1854H15.4803C15.1398 34.1879 14.8049 34.2712 14.5042 34.4283C14.2035 34.5853 13.9458 34.8114 13.7529 35.0873C15.3477 35.9868 17.1522 36.4649 18.9907 36.475C20.8292 36.4851 22.639 36.0268 24.2439 35.1448C24.0637 34.8662 23.8185 34.6339 23.5287 34.467C23.2389 34.3001 22.9129 34.2036 22.5775 34.1854Z" fill="#448BE2"/>
<path opacity="0.5" d="M15.5388 28.7332C15.5388 28.7332 14.4995 31.7076 13.931 31.4293C13.931 31.4293 19.4058 36.0779 24.239 31.4293C23.6574 30.4521 22.9587 29.547 22.1579 28.7332H15.5388Z" fill="#333333"/>
<path opacity="0.5" d="M19.0472 32.4535C21.2934 32.4535 23.1143 30.6633 23.1143 28.4549C23.1143 26.2466 21.2934 24.4564 19.0472 24.4564C16.801 24.4564 14.9801 26.2466 14.9801 28.4549C14.9801 30.6633 16.801 32.4535 19.0472 32.4535Z" fill="#333333"/>
<path opacity="0.1" d="M17.6175 32.7989H20.4549V33.8831C20.4549 34.2228 20.3177 34.5486 20.0734 34.7889C19.829 35.0291 19.4976 35.164 19.1521 35.164H18.9081C18.5626 35.164 18.2312 35.0291 17.9869 34.7889C17.7426 34.5486 17.6053 34.2228 17.6053 33.8831V32.7989H17.6175Z" fill="black"/>
<path opacity="0.5" d="M17.9176 32.7318H20.1573C20.2369 32.7318 20.3132 32.7629 20.3695 32.8182C20.4257 32.8735 20.4574 32.9486 20.4574 33.0268V33.8232C20.4574 34.1629 20.3201 34.4887 20.0758 34.7289C19.8314 34.9691 19.5001 35.104 19.1545 35.104H18.9106C18.5667 35.1015 18.2378 34.9654 17.9956 34.7255C17.7534 34.4856 17.6175 34.1612 17.6175 33.8232V33.034C17.6165 32.9947 17.6236 32.9555 17.6382 32.9189C17.6528 32.8823 17.6748 32.8489 17.7027 32.8207C17.7307 32.7926 17.7641 32.7702 17.801 32.7549C17.8379 32.7396 17.8775 32.7318 17.9176 32.7318Z" fill="#FDA57D"/>
<path opacity="0.1" d="M17.6248 33.1348C18.5402 33.4684 19.5469 33.4684 20.4623 33.1348V32.8109H17.6248V33.1348Z" fill="black"/>
<path opacity="0.5" d="M19.0472 33.3219C21.2934 33.3219 23.1143 31.5316 23.1143 29.3233C23.1143 27.1149 21.2934 25.3247 19.0472 25.3247C16.801 25.3247 14.9801 27.1149 14.9801 29.3233C14.9801 31.5316 16.801 33.3219 19.0472 33.3219Z" fill="#FDA57D"/>
<path opacity="0.5" d="M15.1607 27.8049H22.9142C22.9142 27.8049 22.253 24.7275 19.3205 24.9265C16.3879 25.1256 15.1607 27.8049 15.1607 27.8049Z" fill="#333333"/>
<path opacity="0.5" d="M15.0655 29.851C15.2744 29.851 15.4437 29.5385 15.4437 29.153C15.4437 28.7675 15.2744 28.455 15.0655 28.455C14.8567 28.455 14.6873 28.7675 14.6873 29.153C14.6873 29.5385 14.8567 29.851 15.0655 29.851Z" fill="#FDA57D"/>
<path opacity="0.5" d="M23.0094 29.851C23.2182 29.851 23.3875 29.5385 23.3875 29.153C23.3875 28.7675 23.2182 28.455 23.0094 28.455C22.8005 28.455 22.6312 28.7675 22.6312 29.153C22.6312 29.5385 22.8005 29.851 23.0094 29.851Z" fill="#FDA57D"/>
<path opacity="0.1" d="M15.1607 27.9105H22.9142C22.9142 27.9105 22.253 24.833 19.3205 25.0321C16.3879 25.2312 15.1607 27.9105 15.1607 27.9105Z" fill="black"/>
<path opacity="0.5" d="M83.852 50.7049H40.5244V54.1014H83.852V50.7049Z" fill="#448BE2"/>
<path opacity="0.5" d="M83.852 57.4979H40.5244V60.8944H83.852V57.4979Z" fill="#448BE2"/>
<path opacity="0.5" d="M19.0521 62.4823C23.5714 62.4823 27.235 58.8632 27.235 54.3989C27.235 49.9345 23.5714 46.3154 19.0521 46.3154C14.5328 46.3154 10.8691 49.9345 10.8691 54.3989C10.8691 58.8632 14.5328 62.4823 19.0521 62.4823Z" fill="#448BE2"/>
<path opacity="0.5" d="M83.852 76.5769H40.5244V79.9734H83.852V76.5769Z" fill="#448BE2"/>
<path opacity="0.5" d="M83.852 83.3699H40.5244V86.7664H83.852V83.3699Z" fill="#448BE2"/>
<path opacity="0.5" d="M19.0521 88.3543C23.5714 88.3543 27.235 84.7352 27.235 80.2708C27.235 75.8064 23.5714 72.1873 19.0521 72.1873C14.5328 72.1873 10.8691 75.8064 10.8691 80.2708C10.8691 84.7352 14.5328 88.3543 19.0521 88.3543Z" fill="#448BE2"/>
<path opacity="0.5" d="M83.852 102.449H40.5244V105.845H83.852V102.449Z" fill="#448BE2"/>
<path opacity="0.5" d="M83.852 109.242H40.5244V112.638H83.852V109.242Z" fill="#448BE2"/>
<path opacity="0.5" d="M19.0521 114.226C23.5714 114.226 27.235 110.607 27.235 106.143C27.235 101.678 23.5714 98.0592 19.0521 98.0592C14.5328 98.0592 10.8691 101.678 10.8691 106.143C10.8691 110.607 14.5328 114.226 19.0521 114.226Z" fill="#448BE2"/>
<path opacity="0.5" d="M83.852 128.321H40.5244V131.717H83.852V128.321Z" fill="#448BE2"/>
<path opacity="0.5" d="M83.852 135.114H40.5244V138.51H83.852V135.114Z" fill="#448BE2"/>
<path opacity="0.5" d="M19.0521 140.098C23.5714 140.098 27.235 136.479 27.235 132.015C27.235 127.55 23.5714 123.931 19.0521 123.931C14.5328 123.931 10.8691 127.55 10.8691 132.015C10.8691 136.479 14.5328 140.098 19.0521 140.098Z" fill="#448BE2"/>
</g>
<path d="M148.889 20.2588L60.506 20.4698C59.543 20.4724 58.6204 20.8508 57.941 21.5219C57.2616 22.193 56.881 23.1018 56.883 24.0486L57.2855 183.43C57.2868 183.899 57.3821 184.363 57.5658 184.796C57.7496 185.229 58.0182 185.622 58.3565 185.953C58.6947 186.283 59.0959 186.545 59.5372 186.724C59.9784 186.902 60.451 186.993 60.9281 186.992L149.313 186.781C150.275 186.777 151.195 186.399 151.873 185.729C152.552 185.059 152.932 184.152 152.931 183.207L152.529 23.8256C152.528 23.3563 152.433 22.8918 152.25 22.4586C152.067 22.0253 151.799 21.6319 151.46 21.3006C151.122 20.9694 150.721 20.7069 150.28 20.5281C149.839 20.3493 149.366 20.2578 148.889 20.2588Z" fill="url(#paint1_linear_4_546)"/>
<path d="M147.938 19.5905L61.5314 19.7981C59.6935 19.8025 58.2073 21.2709 58.2117 23.0778L58.6059 181.681C58.6104 183.488 60.104 184.95 61.9419 184.945L148.348 184.738C150.186 184.733 151.672 183.265 151.668 181.458L151.274 22.8543C151.269 21.0473 149.776 19.5861 147.938 19.5905Z" fill="white"/>
<path d="M149.013 65.3632L148.92 26.9534C148.918 26.032 148.543 25.1494 147.879 24.4994C147.215 23.8495 146.315 23.4855 145.378 23.4874L128.087 23.5281C127.823 25.2801 126.929 26.8811 125.569 28.0417C124.208 29.2023 122.469 29.8458 120.668 29.8558L88.5266 29.9326C86.7251 29.9313 84.9836 29.2962 83.6169 28.1422C82.2503 26.9883 81.3488 25.3915 81.0756 23.6409L64.0485 23.6817C63.1114 23.6842 62.2135 24.0525 61.5525 24.7056C60.8914 25.3587 60.5211 26.2431 60.5231 27.1645L60.6182 65.6246" fill="#FAFAFA"/>
<path d="M60.6183 65.627L60.8939 177.083C60.8965 178.004 61.2711 178.887 61.9354 179.537C62.5997 180.187 63.4993 180.551 64.4365 180.549L145.763 180.355C146.701 180.352 147.598 179.984 148.259 179.331C148.92 178.678 149.291 177.793 149.289 176.872L149.011 65.0945" fill="#FAFAFA"/>
<path d="M85.7136 39.4672H68.4352V56.4545H85.7136V39.4672Z" fill="#E0E0E0"/>
<g opacity="0.5">
<path opacity="0.5" d="M162 70.5658H47.9096V108.721H162V70.5658Z" fill="url(#paint2_linear_4_546)"/>
</g>
<path d="M160.643 72.1346H49.2685V107.414H160.643V72.1346Z" fill="white"/>
<path d="M137.014 85.2H93.6867V88.5966H137.014V85.2Z" fill="#448BE2"/>
<path d="M137.014 91.9955H93.6867V95.392H137.014V91.9955Z" fill="#448BE2"/>
<path d="M137.014 122.833H93.6867V126.229H137.014V122.833Z" fill="#E0E0E0"/>
<path d="M137.014 129.626H93.6867V133.022H137.014V129.626Z" fill="#EEEEEE"/>
<path d="M125.052 53.0556H105.649V59.0667H125.052V53.0556Z" fill="#448BE2"/>
<path d="M72.2144 96.9775C76.7338 96.9775 80.3974 93.3584 80.3974 88.894C80.3974 84.4296 76.7338 80.8105 72.2144 80.8105C67.6951 80.8105 64.0315 84.4296 64.0315 88.894C64.0315 93.3584 67.6951 96.9775 72.2144 96.9775Z" fill="#F5F5F5"/>
<path d="M75.7399 94.5524H68.6402C68.2997 94.5549 67.9649 94.6383 67.6641 94.7953C67.3634 94.9523 67.1057 95.1784 66.9128 95.4543C68.5076 96.3538 70.3121 96.8319 72.1506 96.842C73.9891 96.8521 75.799 96.3938 77.4038 95.5119C77.2238 95.2336 76.979 95.0014 76.6897 94.8345C76.4004 94.6677 76.0748 94.571 75.7399 94.5524Z" fill="#448BE2"/>
<path d="M68.7012 89.1027C68.7012 89.1027 67.6618 92.077 67.0934 91.7988C67.0934 91.7988 72.5682 96.4474 77.4014 91.7988C76.8197 90.8215 76.121 89.9164 75.3202 89.1027H68.7012Z" fill="#333333"/>
<path d="M72.2096 92.823C74.4557 92.823 76.2766 91.0327 76.2766 88.8244C76.2766 86.6161 74.4557 84.8258 72.2096 84.8258C69.9634 84.8258 68.1425 86.6161 68.1425 88.8244C68.1425 91.0327 69.9634 92.823 72.2096 92.823Z" fill="#333333"/>
<path opacity="0.1" d="M70.7799 93.1684H73.6173V94.2526C73.6173 94.5923 73.4801 94.9181 73.2357 95.1583C72.9914 95.3985 72.66 95.5335 72.3145 95.5335H72.0705C71.725 95.5335 71.3936 95.3985 71.1493 95.1583C70.9049 94.9181 70.7677 94.5923 70.7677 94.2526V93.1684H70.7799Z" fill="black"/>
<path d="M71.08 93.1012H73.3197C73.3993 93.1012 73.4756 93.1323 73.5319 93.1876C73.5881 93.243 73.6198 93.318 73.6198 93.3963V94.1854C73.6201 94.354 73.5865 94.5211 73.5211 94.6769C73.4556 94.8327 73.3594 94.9743 73.2382 95.0935C73.1169 95.2128 72.9729 95.3073 72.8144 95.3717C72.6559 95.436 72.486 95.469 72.3145 95.4687H72.0705C71.725 95.4687 71.3936 95.3338 71.1493 95.0935C70.9049 94.8533 70.7677 94.5275 70.7677 94.1878V93.3987C70.7677 93.3599 70.7754 93.3216 70.7905 93.2858C70.8056 93.25 70.8277 93.2174 70.8556 93.19C70.8834 93.1626 70.9165 93.1409 70.9529 93.1261C70.9893 93.1113 71.0284 93.1036 71.0678 93.1036L71.08 93.1012Z" fill="#FDA57D"/>
<path opacity="0.1" d="M70.7847 93.497C71.7001 93.8306 72.7068 93.8306 73.6221 93.497V93.154H70.7847V93.497Z" fill="black"/>
<path d="M72.2096 93.6889C74.4557 93.6889 76.2766 91.8987 76.2766 89.6903C76.2766 87.482 74.4557 85.6918 72.2096 85.6918C69.9634 85.6918 68.1425 87.482 68.1425 89.6903C68.1425 91.8987 69.9634 93.6889 72.2096 93.6889Z" fill="#FDA57D"/>
<path d="M68.3133 88.1744H76.0668C76.0668 88.1744 75.4056 85.097 72.473 85.296C69.5405 85.4951 68.3133 88.1744 68.3133 88.1744Z" fill="#333333"/>
<path d="M68.2279 90.218C68.4367 90.218 68.6061 89.9055 68.6061 89.52C68.6061 89.1345 68.4367 88.822 68.2279 88.822C68.019 88.822 67.8497 89.1345 67.8497 89.52C67.8497 89.9055 68.019 90.218 68.2279 90.218Z" fill="#FDA57D"/>
<path d="M76.1693 90.218C76.3781 90.218 76.5474 89.9055 76.5474 89.52C76.5474 89.1345 76.3781 88.822 76.1693 88.822C75.9604 88.822 75.7911 89.1345 75.7911 89.52C75.7911 89.9055 75.9604 90.218 76.1693 90.218Z" fill="#FDA57D"/>
<path opacity="0.1" d="M68.3133 88.2775H76.0668C76.0668 88.2775 75.4056 85.2 72.473 85.3991C69.5405 85.5982 68.3133 88.2775 68.3133 88.2775Z" fill="black"/>
<path d="M77.5307 134.871C82.05 134.871 85.7136 131.252 85.7136 126.788C85.7136 122.324 82.05 118.704 77.5307 118.704C73.0113 118.704 69.3477 122.324 69.3477 126.788C69.3477 131.252 73.0113 134.871 77.5307 134.871Z" fill="#E0E0E0"/>
<path d="M137.014 39.4672H93.6867V42.8637H137.014V39.4672Z" fill="#E0E0E0"/>
<path d="M137.014 46.2626H93.6867V49.6591H137.014V46.2626Z" fill="#E0E0E0"/>
<path d="M113.747 25.4255L93.9868 25.7172C93.7174 25.7211 93.5022 25.9391 93.5062 26.204L93.511 26.5182C93.5151 26.7831 93.7368 26.9947 94.0063 26.9907L113.766 26.6991C114.036 26.6951 114.251 26.4771 114.247 26.2122L114.242 25.898C114.238 25.6331 114.016 25.4216 113.747 25.4255Z" fill="#DBDBDB"/>
<path d="M118.661 26.6293C119.091 26.623 119.434 26.2753 119.428 25.8528C119.421 25.4302 119.068 25.0928 118.638 25.0992C118.208 25.1055 117.865 25.4532 117.871 25.8757C117.878 26.2983 118.231 26.6357 118.661 26.6293Z" fill="#DBDBDB"/>
<defs>
<linearGradient id="paint0_linear_4_546" x1="10.8552" y1="170.777" x2="83.074" y2="-3.86558" gradientUnits="userSpaceOnUse">
<stop stop-color="#808080" stop-opacity="0.25"/>
<stop offset="0.54" stop-color="#808080" stop-opacity="0.12"/>
<stop offset="1" stop-color="#808080" stop-opacity="0.1"/>
</linearGradient>
<linearGradient id="paint1_linear_4_546" x1="53629.8" y1="142819" x2="121280" y2="50794.6" gradientUnits="userSpaceOnUse">
<stop stop-color="#808080" stop-opacity="0.25"/>
<stop offset="0.54" stop-color="#808080" stop-opacity="0.12"/>
<stop offset="1" stop-color="#808080" stop-opacity="0.1"/>
</linearGradient>
<linearGradient id="paint2_linear_4_546" x1="49127.3" y1="17364.2" x2="49127.3" y2="11295.1" gradientUnits="userSpaceOnUse">
<stop stop-color="#808080" stop-opacity="0.25"/>
<stop offset="0.54" stop-color="#808080" stop-opacity="0.12"/>
<stop offset="1" stop-color="#808080" stop-opacity="0.1"/>
</linearGradient>
</defs>
</svg>
