<svg width="24" height="24" viewBox="0 0 24 24" fill="none" xmlns="http://www.w3.org/2000/svg">
<g clip-path="url(#clip0_26_67)">
<path d="M21.923 19.6185V11.6845C23.1462 11.1235 24 9.87323 24 8.42303C24 8.39813 23.9991 8.3736 23.9985 8.34888C24.0073 8.20221 23.9692 8.05426 23.8865 7.92792C23.8861 7.92737 23.8857 7.92682 23.8854 7.92627L22.2768 5.45142C22.2735 5.44629 22.2702 5.44098 22.2669 5.43585L21 3.48706V2.07697C21 0.931641 20.0684 0 18.923 0H5.07697C3.93164 0 3 0.931641 3 2.07697V3.48706L0.114624 7.92627C0.114258 7.927 0.113892 7.92773 0.113525 7.92828C0.0327759 8.05151 -0.00457763 8.1947 0.00164795 8.33679C0.000915525 8.36554 0 8.3941 0 8.42303C0 9.87323 0.853821 11.1235 2.07697 11.6845V19.6185C0.92157 19.6787 0 20.6376 0 21.8077C0 23.0165 0.983459 24 2.19232 24H21.8077C23.0165 24 24 23.0165 24 21.8077C24 20.6376 23.0784 19.6787 21.923 19.6185ZM21.0406 10.5385C20.996 10.5509 20.9511 10.5619 20.9061 10.5712C20.9052 10.5714 20.9041 10.5716 20.9031 10.572C20.814 10.5905 20.7239 10.6027 20.6334 10.6093C20.6257 10.6099 20.6177 10.6104 20.61 10.611C20.567 10.6135 20.5239 10.6154 20.4807 10.6154C20.4467 10.6154 20.4128 10.6143 20.3791 10.6128C20.3683 10.6122 20.3577 10.6113 20.3469 10.6106C20.3238 10.6091 20.3009 10.6075 20.278 10.6051C20.2657 10.604 20.2535 10.6025 20.2412 10.6013C20.2198 10.5987 20.1984 10.5959 20.1771 10.5928C20.1649 10.591 20.1528 10.5892 20.1407 10.5872C20.1185 10.5835 20.0964 10.5795 20.0744 10.5751C20.064 10.5731 20.0533 10.571 20.0431 10.5688C20.0121 10.5623 19.9818 10.5551 19.9514 10.5471C19.9501 10.5467 19.9488 10.5465 19.9475 10.5461C19.9158 10.5377 19.8845 10.5286 19.8536 10.5187C19.8439 10.5156 19.8345 10.5123 19.825 10.509C19.8034 10.502 19.7822 10.4947 19.7609 10.4868C19.7499 10.4826 19.739 10.4784 19.728 10.4742C19.7084 10.4665 19.6888 10.4586 19.6694 10.4504C19.6584 10.4458 19.6476 10.4412 19.6368 10.4363C19.6165 10.4275 19.5965 10.418 19.5767 10.4084C19.5674 10.4039 19.558 10.3997 19.5489 10.3951C19.5222 10.3815 19.4956 10.3678 19.4696 10.3533C19.4676 10.3522 19.4656 10.3511 19.4636 10.35C19.4354 10.3343 19.4077 10.3178 19.3804 10.301C19.3724 10.2958 19.3643 10.2905 19.3563 10.2854C19.3372 10.2731 19.3182 10.2609 19.2995 10.2479C19.29 10.2415 19.2806 10.2349 19.2713 10.2281C19.2541 10.216 19.2371 10.2036 19.22 10.1907C19.2109 10.1838 19.2015 10.1768 19.1924 10.1697C19.1752 10.1561 19.158 10.1422 19.1411 10.1283C19.1332 10.1217 19.1252 10.1151 19.1173 10.1085C19.0953 10.0897 19.0737 10.0704 19.0525 10.0508C19.0503 10.0486 19.0477 10.0466 19.0455 10.0444C19.0219 10.0225 18.999 9.99976 18.9765 9.97687C18.9701 9.97028 18.9639 9.9635 18.9575 9.95691C18.9415 9.94006 18.9258 9.92322 18.9104 9.90601C18.9027 9.89758 18.8952 9.88879 18.8877 9.88019C18.874 9.86426 18.8602 9.84796 18.8467 9.83167C18.8392 9.82251 18.8318 9.81354 18.8245 9.8042C18.811 9.78717 18.7976 9.76959 18.7846 9.75201C18.7782 9.74359 18.7718 9.73517 18.7656 9.72656C18.7493 9.70386 18.7333 9.68079 18.7178 9.65753C18.7154 9.65387 18.7128 9.65039 18.7103 9.64673C18.6925 9.61963 18.6753 9.59198 18.6586 9.56396C18.6539 9.55609 18.6495 9.54803 18.6449 9.53998C18.6332 9.51984 18.6216 9.49951 18.6107 9.47882C18.605 9.46857 18.5997 9.45795 18.5944 9.44751C18.5845 9.42865 18.575 9.40979 18.5658 9.39056C18.5605 9.37958 18.5554 9.36841 18.5502 9.35742C18.5411 9.33765 18.5323 9.31769 18.5237 9.29755C18.5193 9.28711 18.5147 9.27686 18.5105 9.26642C18.5004 9.24133 18.4907 9.21606 18.4814 9.1908C18.4794 9.18512 18.4772 9.17963 18.4752 9.17395C18.4642 9.14301 18.4537 9.11151 18.444 9.08002C18.4413 9.07068 18.4387 9.06134 18.436 9.052C18.431 9.03479 18.4263 9.0174 18.4217 9.00018H22.5405C22.342 9.74652 21.7678 10.3352 21.0406 10.5385ZM16.8636 9.07983C16.8539 9.11151 16.8435 9.14282 16.8325 9.17395C16.8305 9.17963 16.8283 9.18494 16.8263 9.19061C16.817 9.21606 16.8073 9.24133 16.7972 9.26624C16.793 9.27686 16.7884 9.28711 16.784 9.29755C16.7754 9.3175 16.7666 9.33746 16.7576 9.35724C16.7525 9.36841 16.7472 9.37939 16.7419 9.39038C16.7327 9.40961 16.7232 9.42865 16.7135 9.44751C16.708 9.45795 16.7027 9.46838 16.697 9.47882C16.686 9.49951 16.6745 9.51965 16.6628 9.53998C16.6582 9.54785 16.6538 9.55609 16.649 9.56396C16.6324 9.5918 16.6152 9.61945 16.5974 9.64655C16.5948 9.65021 16.5923 9.65387 16.5899 9.65753C16.5743 9.68079 16.5584 9.70386 16.5421 9.72638C16.5359 9.73499 16.5295 9.74341 16.5231 9.75201C16.5101 9.76959 16.4967 9.78699 16.4832 9.8042C16.4758 9.81335 16.4685 9.82251 16.461 9.83148C16.4474 9.84796 16.4339 9.86407 16.42 9.88019C16.4125 9.88879 16.405 9.8974 16.3973 9.90601C16.3819 9.92322 16.3661 9.94006 16.3502 9.95673C16.3438 9.9635 16.3376 9.97028 16.3312 9.97668C16.3087 9.99976 16.2858 10.0225 16.2621 10.0444C16.2599 10.0464 16.2574 10.0486 16.2552 10.0507C16.2339 10.0704 16.2123 10.0895 16.1904 10.1083C16.1825 10.1151 16.1744 10.1215 16.1666 10.1281C16.1497 10.1422 16.1325 10.1559 16.1153 10.1695C16.1061 10.1766 16.0968 10.1838 16.0876 10.1907C16.0708 10.2034 16.0538 10.2158 16.0366 10.2281C16.027 10.2347 16.0177 10.2413 16.0082 10.2479C15.9895 10.2607 15.9705 10.2731 15.9514 10.2854C15.9434 10.2905 15.9355 10.2958 15.9272 10.3008C15.9 10.3178 15.8723 10.3343 15.8441 10.35C15.8421 10.3511 15.8401 10.3521 15.8381 10.3531C15.8121 10.3676 15.7855 10.3815 15.7588 10.3949C15.7496 10.3995 15.7403 10.4039 15.731 10.4083C15.7112 10.418 15.6912 10.4273 15.6709 10.4363C15.6601 10.441 15.6493 10.4456 15.6383 10.4504C15.6189 10.4584 15.5995 10.4663 15.5797 10.474C15.5687 10.4784 15.5577 10.4826 15.5468 10.4866C15.5255 10.4945 15.5043 10.5018 15.4828 10.509C15.4731 10.5121 15.4638 10.5156 15.4541 10.5185C15.4232 10.5284 15.3918 10.5375 15.3602 10.546C15.3589 10.5463 15.3576 10.5467 15.3563 10.5471C15.3259 10.5549 15.2953 10.5621 15.2648 10.5688C15.2543 10.571 15.2437 10.5729 15.2333 10.5749C15.2113 10.5793 15.1891 10.5835 15.167 10.5872C15.1549 10.5892 15.1428 10.591 15.1306 10.5927C15.1093 10.5958 15.0879 10.5985 15.0665 10.6011C15.0542 10.6025 15.0421 10.6038 15.0297 10.6051C15.007 10.6073 14.9839 10.6089 14.9608 10.6104C14.95 10.6111 14.9394 10.6121 14.9286 10.6126C14.8949 10.6143 14.861 10.6152 14.827 10.6152C14.7927 10.6152 14.7589 10.6143 14.7252 10.6126C14.7144 10.6121 14.7037 10.6111 14.6931 10.6104C14.67 10.6089 14.647 10.6073 14.6241 10.6051C14.6118 10.6038 14.5995 10.6025 14.5875 10.6011C14.5659 10.5985 14.5444 10.5958 14.5232 10.5927C14.5111 10.5908 14.499 10.5892 14.4869 10.5872C14.4646 10.5835 14.4426 10.5793 14.4205 10.5749C14.41 10.5729 14.3996 10.571 14.3892 10.5688C14.3584 10.5623 14.3278 10.5549 14.2976 10.5471C14.2963 10.5467 14.295 10.5463 14.2936 10.546C14.2621 10.5375 14.2308 10.5284 14.1996 10.5185C14.1901 10.5156 14.1806 10.5121 14.1711 10.509C14.1497 10.5018 14.1282 10.4945 14.1072 10.4866C14.096 10.4826 14.085 10.4784 14.074 10.474C14.0544 10.4663 14.0349 10.4584 14.0154 10.4504C14.0046 10.4456 13.9937 10.441 13.9828 10.4363C13.9627 10.4273 13.9427 10.418 13.9228 10.4083C13.9135 10.4039 13.9041 10.3995 13.895 10.3949C13.8682 10.3815 13.8419 10.3676 13.8157 10.3531C13.8138 10.3521 13.8116 10.3511 13.8096 10.35C13.7816 10.3343 13.754 10.3178 13.7265 10.3008C13.7184 10.2958 13.7106 10.2905 13.7025 10.2854C13.6833 10.2731 13.6644 10.2607 13.6456 10.2479C13.636 10.2413 13.6267 10.2347 13.6174 10.2281C13.6002 10.2158 13.5831 10.2034 13.5663 10.1907C13.5569 10.1838 13.5478 10.1766 13.5386 10.1695C13.5212 10.1559 13.5042 10.1422 13.4874 10.1281C13.4793 10.1215 13.4713 10.1151 13.4636 10.1083C13.4416 10.0897 13.42 10.0704 13.3987 10.0507C13.3964 10.0486 13.394 10.0464 13.3916 10.0444C13.3682 10.0223 13.3451 9.99976 13.3226 9.97668C13.3162 9.97009 13.3099 9.96332 13.3037 9.95673C13.2878 9.94006 13.2719 9.92322 13.2565 9.90601C13.249 9.8974 13.2415 9.88879 13.2339 9.88019C13.22 9.86407 13.2063 9.84796 13.1929 9.83148C13.1854 9.82251 13.1781 9.81335 13.1708 9.8042C13.157 9.78699 13.1439 9.76959 13.1307 9.75201C13.1245 9.74341 13.118 9.73499 13.1118 9.72638C13.0953 9.70386 13.0794 9.68079 13.064 9.65753C13.0615 9.65387 13.0589 9.65021 13.0565 9.64655C13.0388 9.61945 13.0215 9.5918 13.0049 9.56396C13.0001 9.55609 12.9957 9.54785 12.9911 9.53998C12.9792 9.51965 12.9679 9.49933 12.9567 9.47882C12.9512 9.46838 12.9457 9.45795 12.9404 9.44751C12.9307 9.42865 12.9212 9.40961 12.9119 9.39038C12.9066 9.37939 12.9014 9.36841 12.8963 9.35724C12.8871 9.33765 12.8784 9.3175 12.8699 9.29755C12.8655 9.28711 12.861 9.27686 12.8568 9.26624C12.8465 9.24133 12.8368 9.21606 12.8276 9.19061C12.8256 9.18512 12.8232 9.17963 12.8212 9.17395C12.8102 9.14282 12.8 9.11151 12.7903 9.07983C12.7874 9.0705 12.785 9.06116 12.7822 9.05182C12.7771 9.03479 12.7725 9.0174 12.7679 9H16.886C16.8814 9.0174 16.8766 9.03461 16.8717 9.05182C16.869 9.06116 16.8664 9.0705 16.8636 9.07983ZM11.2097 9.07983C11.2 9.11151 11.1898 9.14282 11.1788 9.17395C11.1768 9.17963 11.1744 9.18494 11.1724 9.19061C11.1632 9.21606 11.1535 9.24133 11.1432 9.26624C11.139 9.27686 11.1345 9.28711 11.1301 9.29755C11.1216 9.3175 11.1129 9.33746 11.1037 9.35724C11.0986 9.36841 11.0934 9.37939 11.0881 9.39038C11.0788 9.40961 11.0693 9.42865 11.0596 9.44751C11.0543 9.45795 11.0488 9.46838 11.0433 9.47882C11.0321 9.49951 11.0208 9.51965 11.0089 9.53998C11.0043 9.54785 10.9999 9.55609 10.9951 9.56396C10.9785 9.5918 10.9614 9.61945 10.9435 9.64655C10.9411 9.65021 10.9385 9.65387 10.936 9.65753C10.9206 9.68079 10.9047 9.70386 10.8882 9.72638C10.8821 9.73499 10.8755 9.74341 10.8693 9.75201C10.8561 9.76959 10.843 9.78699 10.8292 9.8042C10.8219 9.81335 10.8146 9.82251 10.8071 9.83148C10.7937 9.84796 10.78 9.86407 10.7661 9.88019C10.7585 9.88879 10.751 9.8974 10.7435 9.90601C10.7281 9.92322 10.7122 9.94006 10.6963 9.95673C10.6901 9.9635 10.6838 9.97028 10.6774 9.97668C10.6549 9.99976 10.6318 10.0225 10.6084 10.0444C10.606 10.0464 10.6036 10.0486 10.6013 10.0507C10.58 10.0704 10.5584 10.0895 10.5364 10.1083C10.5287 10.1151 10.5207 10.1215 10.5126 10.1281C10.4958 10.1422 10.4788 10.1559 10.4614 10.1695C10.4522 10.1766 10.4431 10.1838 10.4337 10.1907C10.4169 10.2034 10.3998 10.2158 10.3826 10.2281C10.3733 10.2347 10.364 10.2413 10.3544 10.2479C10.3356 10.2607 10.3167 10.2731 10.2975 10.2854C10.2894 10.2905 10.2816 10.2958 10.2735 10.3008C10.246 10.3178 10.2184 10.3343 10.1904 10.35C10.1884 10.3511 10.1862 10.3521 10.1843 10.3531C10.1581 10.3676 10.1318 10.3815 10.105 10.3949C10.0959 10.3995 10.0865 10.4039 10.0772 10.4083C10.0573 10.418 10.0373 10.4273 10.0172 10.4363C10.0063 10.441 9.99536 10.4456 9.98456 10.4504C9.96515 10.4584 9.94556 10.4663 9.92596 10.474C9.91498 10.4784 9.90399 10.4826 9.89282 10.4866C9.87177 10.4945 9.85034 10.5018 9.82892 10.509C9.8194 10.5121 9.80988 10.5156 9.80035 10.5185C9.76923 10.5284 9.73792 10.5375 9.70642 10.546C9.70496 10.5463 9.70367 10.5467 9.70239 10.5471C9.67218 10.5549 9.6416 10.5621 9.61084 10.5688C9.6004 10.571 9.58997 10.5729 9.57953 10.5749C9.55737 10.5793 9.5354 10.5835 9.51306 10.5872C9.50098 10.5892 9.48889 10.591 9.47681 10.5927C9.45557 10.5958 9.43414 10.5985 9.41254 10.6011C9.40045 10.6025 9.38818 10.6038 9.37592 10.6051C9.35303 10.6073 9.32996 10.6089 9.30688 10.6104C9.29626 10.6111 9.28564 10.6121 9.27484 10.6126C9.24115 10.6143 9.20728 10.6152 9.17303 10.6152C9.13898 10.6152 9.1051 10.6143 9.07141 10.6126C9.06061 10.6121 9.04999 10.6111 9.03918 10.6104C9.01611 10.6089 8.99323 10.6073 8.97034 10.6051C8.95807 10.6038 8.9458 10.6025 8.93353 10.6011C8.91211 10.5985 8.89069 10.5958 8.86945 10.5927C8.85718 10.5908 8.84509 10.5892 8.83301 10.5872C8.81085 10.5835 8.7887 10.5793 8.76672 10.5749C8.75629 10.5729 8.74567 10.571 8.73523 10.5688C8.70447 10.5623 8.67389 10.5549 8.64368 10.5471C8.6424 10.5467 8.64111 10.5463 8.63983 10.546C8.60815 10.5375 8.57684 10.5284 8.5459 10.5185C8.53619 10.5156 8.52686 10.5121 8.51715 10.509C8.49573 10.5018 8.47449 10.4945 8.45325 10.4866C8.44226 10.4826 8.43127 10.4784 8.42029 10.474C8.40051 10.4663 8.3811 10.4584 8.36169 10.4504C8.35071 10.4456 8.3399 10.441 8.3291 10.4363C8.30878 10.4273 8.28882 10.418 8.26904 10.4083C8.2597 10.4039 8.25037 10.3995 8.24121 10.3949C8.21448 10.3815 8.18793 10.3676 8.16193 10.3531C8.15991 10.3521 8.1579 10.3511 8.15588 10.35C8.12769 10.3343 8.10004 10.3178 8.07275 10.3008C8.06451 10.2958 8.05664 10.2905 8.04858 10.2854C8.02954 10.2731 8.0105 10.2607 7.99182 10.2479C7.9823 10.2413 7.97296 10.2347 7.96344 10.2281C7.94623 10.2158 7.9292 10.2034 7.91235 10.1907C7.9032 10.1838 7.89386 10.1766 7.8847 10.1695C7.86749 10.1559 7.85028 10.1422 7.83344 10.1281C7.82556 10.1215 7.8175 10.1151 7.80963 10.1083C7.78766 10.0897 7.76605 10.0704 7.74481 10.0507C7.74261 10.0486 7.74005 10.0464 7.73785 10.0444C7.71423 10.0223 7.69135 9.99976 7.66882 9.97668C7.66241 9.97009 7.65619 9.96332 7.64978 9.95673C7.63385 9.94006 7.6181 9.92322 7.60272 9.90601C7.59503 9.8974 7.58752 9.88879 7.58002 9.88019C7.5661 9.86407 7.55255 9.84796 7.539 9.83148C7.53149 9.82251 7.52417 9.81335 7.51685 9.8042C7.5033 9.78699 7.48993 9.76959 7.47693 9.75201C7.47052 9.74341 7.46411 9.73499 7.45789 9.72638C7.44159 9.70386 7.42566 9.68079 7.4101 9.65753C7.40771 9.65387 7.40515 9.65021 7.40259 9.64655C7.38483 9.61945 7.36761 9.5918 7.35095 9.56396C7.34619 9.55609 7.3418 9.54785 7.33722 9.53998C7.3255 9.51965 7.31396 9.49933 7.30298 9.47882C7.2973 9.46838 7.29199 9.45795 7.2865 9.44751C7.27679 9.42865 7.26727 9.40961 7.25812 9.39038C7.25281 9.37939 7.2475 9.36841 7.24237 9.35724C7.2334 9.33765 7.22461 9.3175 7.216 9.29755C7.21161 9.28711 7.20703 9.27686 7.20282 9.26624C7.19275 9.24133 7.18304 9.21606 7.17371 9.19061C7.17169 9.18512 7.16949 9.17963 7.16748 9.17395C7.15649 9.14282 7.14606 9.11151 7.13635 9.07983C7.13361 9.0705 7.13104 9.06116 7.1283 9.05182C7.12335 9.03479 7.11859 9.0174 7.11401 9H11.2321C11.2275 9.0174 11.2227 9.03461 11.2178 9.05182C11.215 9.06116 11.2126 9.0705 11.2097 9.07983ZM4.27277 4.0697C4.34583 3.95728 4.38464 3.82617 4.38464 3.69232V2.07697C4.38464 1.69519 4.69519 1.38464 5.07697 1.38464H18.923C19.3048 1.38464 19.6154 1.69519 19.6154 2.07697V3.69232C19.6154 3.82617 19.6542 3.95728 19.7272 4.0697L22.0318 7.61536H1.96802L4.27277 4.0697ZM1.45953 9H5.57831C5.57373 9.0174 5.56897 9.03461 5.56403 9.05182C5.56128 9.06116 5.55872 9.0705 5.55597 9.07983C5.54626 9.11151 5.53583 9.14282 5.52484 9.17395C5.52283 9.17963 5.52063 9.18494 5.51862 9.19061C5.50928 9.21606 5.49957 9.24133 5.4895 9.26624C5.48529 9.27686 5.48071 9.28711 5.47632 9.29755C5.46771 9.3175 5.45892 9.33746 5.44977 9.35724C5.44464 9.36841 5.43951 9.37939 5.4342 9.39038C5.42505 9.40961 5.41553 9.42865 5.40564 9.44751C5.40033 9.45795 5.39484 9.46838 5.38934 9.47882C5.37836 9.49951 5.36682 9.51965 5.3551 9.53998C5.35052 9.54785 5.34613 9.55609 5.34137 9.56396C5.32471 9.5918 5.3075 9.61945 5.28973 9.64655C5.28717 9.65021 5.28461 9.65387 5.28223 9.65753C5.26666 9.68079 5.25073 9.70386 5.23444 9.72638C5.22821 9.73499 5.2218 9.74341 5.21539 9.75201C5.20239 9.76959 5.18903 9.78699 5.17548 9.8042C5.16815 9.81335 5.16083 9.82251 5.15332 9.83148C5.13977 9.84796 5.12622 9.86407 5.1123 9.88019C5.1048 9.88879 5.09729 9.8974 5.0896 9.90601C5.07422 9.92322 5.05847 9.94006 5.04254 9.95673C5.03613 9.9635 5.02991 9.97028 5.0235 9.97668C5.00098 9.99976 4.97809 10.0225 4.95447 10.0444C4.95209 10.0464 4.94971 10.0486 4.94751 10.0507C4.92627 10.0704 4.90466 10.0895 4.88269 10.1083C4.87482 10.1151 4.86676 10.1215 4.85889 10.1281C4.84204 10.1422 4.82483 10.1559 4.80762 10.1695C4.79846 10.1766 4.78912 10.1838 4.77997 10.1907C4.76294 10.2034 4.74591 10.2158 4.7287 10.2281C4.71936 10.2347 4.71002 10.2413 4.7005 10.2479C4.68182 10.2607 4.66278 10.2731 4.64374 10.2854C4.63568 10.2905 4.62781 10.2958 4.61957 10.3008C4.59229 10.3178 4.56464 10.3343 4.53644 10.35C4.53442 10.3511 4.53241 10.3521 4.5304 10.3531C4.50439 10.3676 4.47784 10.3815 4.45111 10.3949C4.44196 10.3995 4.43262 10.4039 4.42328 10.4083C4.4035 10.418 4.38354 10.4273 4.36322 10.4363C4.35242 10.441 4.34161 10.4456 4.33063 10.4504C4.31122 10.4584 4.29181 10.4663 4.27203 10.474C4.26105 10.4784 4.25006 10.4826 4.23907 10.4866C4.21783 10.4945 4.19641 10.5018 4.17499 10.509C4.16547 10.5121 4.15613 10.5156 4.14642 10.5185C4.11548 10.5284 4.08417 10.5375 4.05249 10.546C4.05121 10.5463 4.04993 10.5467 4.04865 10.5471C4.01825 10.5549 3.98767 10.5621 3.95691 10.5688C3.94666 10.571 3.93604 10.5729 3.9256 10.5749C3.90363 10.5793 3.88147 10.5835 3.85931 10.5872C3.84723 10.5892 3.83514 10.591 3.82288 10.5927C3.80164 10.5958 3.78021 10.5985 3.75879 10.6011C3.74652 10.6025 3.73444 10.6038 3.72198 10.6051C3.6991 10.6073 3.67621 10.6089 3.65314 10.6104C3.64233 10.6111 3.63171 10.6121 3.62091 10.6126C3.58722 10.6144 3.55334 10.6154 3.51929 10.6154C3.47626 10.6154 3.43304 10.6137 3.39001 10.611C3.38214 10.6104 3.37427 10.61 3.36658 10.6095C3.27612 10.6027 3.18604 10.5905 3.09686 10.572C3.09595 10.5718 3.09485 10.5716 3.09393 10.5714C3.04889 10.5619 3.00403 10.5509 2.95935 10.5385C2.23224 10.3352 1.65802 9.74652 1.45953 9ZM3.68225 11.9958C3.69214 11.9954 3.70184 11.9951 3.71173 11.9945C3.76355 11.9916 3.815 11.9875 3.86627 11.9824C3.87616 11.9815 3.88605 11.9804 3.89612 11.9793C3.94867 11.9734 4.00104 11.967 4.05304 11.9588C4.05505 11.9586 4.05725 11.9581 4.05927 11.9579C4.10999 11.9498 4.16034 11.9405 4.21051 11.9302C4.21948 11.9284 4.22864 11.9268 4.23779 11.9247C4.28723 11.9143 4.33612 11.9028 4.38483 11.8903C4.39471 11.8878 4.40442 11.885 4.41431 11.8824C4.46393 11.8691 4.51318 11.8552 4.56189 11.8398C4.56555 11.8385 4.56921 11.8372 4.57288 11.8361C4.61957 11.8211 4.66589 11.805 4.71167 11.7881C4.72009 11.785 4.72852 11.7823 4.73676 11.779C4.78326 11.7616 4.82904 11.7431 4.87463 11.7237C4.88416 11.7197 4.89368 11.7155 4.90338 11.7112C4.94934 11.6911 4.99493 11.6704 5.03979 11.6484C5.04456 11.6461 5.04913 11.6437 5.05371 11.6413C5.09656 11.6202 5.13867 11.5983 5.18042 11.5754C5.18774 11.5714 5.19525 11.5673 5.20258 11.5633C5.24561 11.5395 5.2879 11.5146 5.32983 11.489C5.33881 11.4835 5.34778 11.4778 5.35675 11.4721C5.39868 11.4459 5.44025 11.419 5.48108 11.3912C5.48621 11.3875 5.49133 11.3839 5.49646 11.3804C5.53491 11.3536 5.573 11.326 5.61035 11.2978C5.61676 11.293 5.62317 11.2885 5.62939 11.2837C5.6684 11.2538 5.70667 11.2233 5.74438 11.1918C5.75244 11.185 5.7605 11.1782 5.76855 11.1714C5.80627 11.1396 5.84326 11.1072 5.87952 11.0737C5.88483 11.0689 5.88977 11.0641 5.8949 11.0594C5.92914 11.0273 5.96301 10.9948 5.99597 10.9612C6.00092 10.9563 6.00604 10.9515 6.0108 10.9466C6.04541 10.9113 6.07928 10.8752 6.11243 10.8384C6.11938 10.8307 6.12616 10.823 6.13312 10.8151C6.16589 10.7783 6.19794 10.7408 6.22925 10.7025C6.23401 10.6967 6.23859 10.6906 6.24335 10.6848C6.27319 10.6476 6.30249 10.61 6.33087 10.5716C6.33435 10.567 6.33783 10.5624 6.34131 10.5579C6.34296 10.5557 6.3446 10.5535 6.34625 10.5513C6.3479 10.5535 6.34955 10.5555 6.3512 10.5579C6.35468 10.5624 6.35815 10.567 6.36163 10.5716C6.39001 10.61 6.41931 10.6478 6.44916 10.6848C6.45392 10.6906 6.4585 10.6967 6.46326 10.7025C6.49457 10.7408 6.52661 10.7783 6.55939 10.8151C6.56635 10.823 6.57312 10.8307 6.58008 10.8384C6.61322 10.8752 6.64709 10.9113 6.6817 10.9466C6.68646 10.9515 6.69159 10.9563 6.69653 10.9612C6.72949 10.9948 6.76318 11.0273 6.79761 11.0594C6.80273 11.0641 6.80786 11.0689 6.81299 11.0737C6.84924 11.1072 6.88623 11.1396 6.92395 11.1714C6.93182 11.1782 6.93988 11.185 6.94812 11.1918C6.98584 11.2233 7.02411 11.2538 7.06311 11.2837C7.06934 11.2885 7.07574 11.293 7.08215 11.2978C7.11951 11.326 7.15741 11.3536 7.19604 11.3804C7.20117 11.3839 7.2063 11.3875 7.21143 11.3912C7.25226 11.419 7.29382 11.4459 7.33575 11.4721C7.34473 11.4778 7.3537 11.4835 7.36267 11.489C7.4046 11.5146 7.4469 11.5395 7.48993 11.5633C7.49725 11.5673 7.50476 11.5714 7.51208 11.5754C7.55383 11.5983 7.59595 11.6202 7.63861 11.6413C7.64337 11.6437 7.64795 11.6461 7.65271 11.6484C7.69757 11.6704 7.74316 11.6911 7.78912 11.7112C7.79883 11.7155 7.80835 11.7197 7.81787 11.7237C7.86328 11.7431 7.90924 11.7616 7.95575 11.779C7.96399 11.7823 7.97241 11.7852 7.98083 11.7881C8.02661 11.805 8.07294 11.8211 8.11963 11.8361C8.12329 11.8372 8.12695 11.8385 8.13062 11.8398C8.17932 11.8552 8.22858 11.8691 8.2782 11.8824C8.2879 11.885 8.29779 11.8878 8.30768 11.8903C8.35638 11.9028 8.40527 11.9143 8.45471 11.9247C8.46387 11.9268 8.47284 11.9284 8.48199 11.9302C8.53217 11.9405 8.58234 11.9498 8.63324 11.9579C8.63525 11.9581 8.63745 11.9586 8.63947 11.9588C8.69147 11.967 8.74384 11.9734 8.79639 11.9793C8.80646 11.9802 8.81635 11.9815 8.82623 11.9824C8.8775 11.9875 8.92896 11.9916 8.98077 11.9945C8.99066 11.9951 9.00037 11.9954 9.01025 11.9958C9.06427 11.9984 9.11865 12 9.17322 12C9.22797 12 9.28217 11.9984 9.33636 11.9958C9.34607 11.9954 9.35596 11.9951 9.36566 11.9945C9.41748 11.9916 9.46893 11.9875 9.5202 11.9824C9.53027 11.9815 9.54016 11.9804 9.55005 11.9793C9.60278 11.9734 9.65515 11.967 9.70715 11.9588C9.70917 11.9586 9.71118 11.9581 9.71338 11.9579C9.7641 11.9498 9.81445 11.9405 9.86444 11.9302C9.8736 11.9284 9.88275 11.9268 9.89172 11.9247C9.94116 11.9143 9.99023 11.9028 10.0388 11.8903C10.0486 11.8878 10.0585 11.885 10.0684 11.8824C10.118 11.8691 10.1673 11.8552 10.216 11.8398C10.2197 11.8385 10.2231 11.8372 10.2268 11.8361C10.2737 11.8211 10.3198 11.805 10.3658 11.7881C10.374 11.785 10.3824 11.7823 10.3909 11.779C10.4372 11.7616 10.4832 11.7431 10.5286 11.7237C10.5383 11.7197 10.5478 11.7155 10.5573 11.7112C10.6033 11.6911 10.6489 11.6704 10.6939 11.6484C10.6985 11.6461 10.7032 11.6437 10.7078 11.6413C10.7505 11.6202 10.7926 11.5983 10.8344 11.5754C10.8419 11.5714 10.8494 11.5673 10.8567 11.5633C10.8995 11.5395 10.9418 11.5146 10.9838 11.489C10.9929 11.4835 11.0017 11.4778 11.0109 11.4721C11.0528 11.4459 11.0944 11.419 11.1352 11.3912C11.1403 11.3875 11.1454 11.3839 11.1506 11.3804C11.189 11.3536 11.2269 11.326 11.2645 11.2978C11.2707 11.293 11.2771 11.2885 11.2833 11.2837C11.3223 11.2538 11.3606 11.2233 11.3985 11.1918C11.4066 11.185 11.4146 11.1782 11.4227 11.1714C11.4602 11.1396 11.4974 11.1072 11.5336 11.0737C11.5388 11.0689 11.5437 11.0641 11.5488 11.0594C11.5833 11.0273 11.6169 10.9948 11.6501 10.9612C11.655 10.9563 11.66 10.9515 11.6649 10.9466C11.6995 10.9113 11.7332 10.8752 11.7664 10.8384C11.7733 10.8307 11.7803 10.823 11.787 10.8151C11.8198 10.7783 11.8521 10.7408 11.8834 10.7025C11.8879 10.6967 11.8927 10.6906 11.8973 10.6848C11.9271 10.6476 11.9564 10.61 11.9848 10.5716C11.9883 10.567 11.9919 10.5624 11.9952 10.5579C11.9969 10.5557 11.9987 10.5535 12.0004 10.5513C12.0018 10.5535 12.0037 10.5555 12.0053 10.5579C12.0086 10.5624 12.0123 10.567 12.0157 10.5716C12.0441 10.61 12.0732 10.6478 12.1033 10.6848C12.1078 10.6906 12.1126 10.6967 12.1172 10.7025C12.1485 10.7408 12.1807 10.7783 12.2135 10.8151C12.2203 10.823 12.2272 10.8307 12.2342 10.8384C12.2673 10.8752 12.301 10.9113 12.3356 10.9466C12.3406 10.9515 12.3455 10.9563 12.3505 10.9612C12.3836 10.9948 12.4173 11.0273 12.4517 11.0594C12.4568 11.0641 12.4618 11.0689 12.4669 11.0737C12.5032 11.1072 12.5403 11.1396 12.5779 11.1714L12.6021 11.1918C12.6398 11.2233 12.6782 11.2538 12.7172 11.2837C12.7234 11.2885 12.7299 11.293 12.7361 11.2978C12.7736 11.326 12.8115 11.3536 12.85 11.3804C12.8553 11.3839 12.8602 11.3875 12.8654 11.3912C12.9062 11.419 12.9478 11.4459 12.9897 11.4721C12.9988 11.4778 13.0078 11.4835 13.0168 11.489C13.0585 11.5146 13.1008 11.5395 13.1439 11.5633C13.1512 11.5673 13.1587 11.5714 13.1662 11.5754C13.2079 11.5983 13.2501 11.6202 13.2927 11.6413C13.2973 11.6437 13.3021 11.6461 13.3066 11.6484C13.3517 11.6704 13.3973 11.6911 13.4432 11.7112C13.4528 11.7155 13.4623 11.7197 13.472 11.7237C13.5174 11.7431 13.5634 11.7616 13.6097 11.779C13.6181 11.7823 13.6265 11.7852 13.6348 11.7881C13.6807 11.805 13.7269 11.8211 13.7737 11.8361C13.7774 11.8372 13.7811 11.8385 13.7845 11.8398C13.8333 11.8552 13.8825 11.8691 13.9321 11.8824C13.942 11.885 13.9517 11.8878 13.9618 11.8903C14.0103 11.9028 14.0594 11.9143 14.1088 11.9247C14.1178 11.9268 14.127 11.9284 14.1361 11.9302C14.1861 11.9405 14.2365 11.9498 14.2872 11.9579C14.2894 11.9581 14.2914 11.9586 14.2934 11.9588C14.3454 11.967 14.3978 11.9734 14.4505 11.9793C14.4604 11.9802 14.4703 11.9815 14.4803 11.9824C14.5316 11.9875 14.5831 11.9916 14.6349 11.9945C14.6446 11.9951 14.6545 11.9954 14.6642 11.9958C14.7184 11.9984 14.7726 12 14.8273 12C14.8819 12 14.9363 11.9984 14.9903 11.9958C15.0002 11.9954 15.0099 11.9951 15.0198 11.9945C15.0716 11.9916 15.123 11.9875 15.1743 11.9824C15.1842 11.9815 15.1941 11.9804 15.2042 11.9793C15.2567 11.9734 15.3093 11.967 15.3611 11.9588C15.3631 11.9586 15.3653 11.9581 15.3673 11.9579C15.418 11.9498 15.4684 11.9405 15.5186 11.9302C15.5277 11.9284 15.5367 11.9268 15.5458 11.9247C15.5953 11.9143 15.6443 11.9028 15.6929 11.8903C15.7028 11.8878 15.7126 11.885 15.7225 11.8824C15.772 11.8691 15.8212 11.8552 15.8699 11.8398C15.8736 11.8385 15.8773 11.8372 15.8809 11.8361C15.9276 11.8211 15.9739 11.805 16.0197 11.7881C16.0281 11.785 16.0366 11.7823 16.0448 11.779C16.0913 11.7616 16.1373 11.7431 16.1827 11.7237C16.1922 11.7197 16.2017 11.7155 16.2114 11.7112C16.2574 11.6911 16.303 11.6704 16.3478 11.6484C16.3526 11.6461 16.3572 11.6437 16.3619 11.6413C16.4046 11.6202 16.4467 11.5983 16.4885 11.5754C16.4958 11.5714 16.5033 11.5673 16.5106 11.5633C16.5536 11.5395 16.5959 11.5146 16.6379 11.489C16.6469 11.4835 16.6558 11.4778 16.6648 11.4721C16.7067 11.4459 16.7483 11.419 16.7891 11.3912C16.7943 11.3875 16.7994 11.3839 16.8045 11.3804C16.8431 11.3536 16.881 11.326 16.9184 11.2978C16.9248 11.293 16.9312 11.2885 16.9374 11.2837C16.9764 11.2538 17.0147 11.2233 17.0524 11.1918C17.0607 11.185 17.0685 11.1782 17.0768 11.1714C17.1143 11.1396 17.1513 11.1072 17.1876 11.0737C17.1929 11.0689 17.1978 11.0641 17.2029 11.0594C17.2372 11.0273 17.2711 10.9948 17.304 10.9612C17.309 10.9563 17.3141 10.9515 17.3188 10.9466C17.3535 10.9113 17.3873 10.8752 17.4205 10.8384C17.4274 10.8307 17.4342 10.823 17.4412 10.8151C17.4739 10.7783 17.506 10.7408 17.5373 10.7025C17.5421 10.6967 17.5466 10.6906 17.5514 10.6848C17.5812 10.6476 17.6105 10.61 17.6389 10.5716C17.6424 10.567 17.6459 10.5624 17.6494 10.5579C17.651 10.5557 17.6526 10.5535 17.6543 10.5513C17.6559 10.5535 17.6576 10.5555 17.6592 10.5579C17.6627 10.5624 17.6662 10.567 17.6697 10.5716C17.6982 10.61 17.7274 10.6478 17.7572 10.6848C17.762 10.6906 17.7665 10.6967 17.7713 10.7025C17.8026 10.7408 17.8347 10.7783 17.8674 10.8151C17.8744 10.823 17.8812 10.8307 17.8883 10.8384C17.9213 10.8752 17.9551 10.9113 17.9897 10.9466C17.9947 10.9515 17.9996 10.9563 18.0046 10.9612C18.0375 10.9948 18.0712 11.0273 18.1057 11.0594C18.1108 11.0641 18.1159 11.0689 18.121 11.0737C18.1573 11.1072 18.1943 11.1396 18.232 11.1714C18.2399 11.1782 18.2481 11.185 18.2562 11.1918C18.2939 11.2233 18.3322 11.2538 18.3712 11.2837C18.3774 11.2885 18.3838 11.293 18.3902 11.2978C18.4276 11.326 18.4656 11.3536 18.5041 11.3804C18.5092 11.3839 18.5143 11.3875 18.5195 11.3912C18.5603 11.419 18.6019 11.4459 18.6438 11.4721C18.6528 11.4778 18.6617 11.4835 18.6707 11.489C18.7126 11.5146 18.7549 11.5395 18.798 11.5633C18.8053 11.5673 18.8128 11.5714 18.8201 11.5754C18.8619 11.5983 18.904 11.6202 18.9468 11.6413C18.9514 11.6437 18.956 11.6461 18.9608 11.6484C19.0056 11.6704 19.0512 11.6911 19.0974 11.7112C19.1069 11.7155 19.1164 11.7197 19.1259 11.7237C19.1715 11.7431 19.2173 11.7616 19.2638 11.779C19.272 11.7823 19.2805 11.7852 19.2889 11.7881C19.3347 11.805 19.381 11.8211 19.4277 11.8361C19.4313 11.8372 19.435 11.8385 19.4387 11.8398C19.4874 11.8552 19.5366 11.8691 19.5862 11.8824C19.5961 11.885 19.6058 11.8878 19.6157 11.8903C19.6644 11.9028 19.7135 11.9143 19.7628 11.9247C19.7719 11.9268 19.7811 11.9284 19.79 11.9302C19.8402 11.9405 19.8904 11.9498 19.9413 11.9579C19.9433 11.9581 19.9455 11.9586 19.9475 11.9588C19.9995 11.967 20.0519 11.9734 20.1046 11.9793C20.1145 11.9802 20.1244 11.9815 20.1343 11.9824C20.1855 11.9875 20.237 11.9916 20.2888 11.9945C20.2987 11.9951 20.3084 11.9954 20.3183 11.9958C20.3723 11.9984 20.4267 12 20.4813 12C20.5005 12 20.5197 11.9998 20.5389 11.9995V19.6154H11.3077V15.2307C11.3077 14.0856 10.376 13.1539 9.23071 13.1539H7.38464C6.23932 13.1539 5.30768 14.0856 5.30768 15.2307V19.6154H3.46161V11.9995C3.48083 11.9998 3.50006 12 3.51929 12C3.57385 12 3.62823 11.9984 3.68225 11.9958ZM9.92303 19.6154H6.69232V15.2307C6.69232 14.8491 7.00287 14.5384 7.38464 14.5384H9.23071C9.61249 14.5384 9.92303 14.8491 9.92303 15.2307V19.6154ZM21.8077 22.6154H2.19232C1.74701 22.6154 1.38464 22.253 1.38464 21.8077C1.38464 21.3624 1.74701 21 2.19232 21H21.8077C22.253 21 22.6154 21.3624 22.6154 21.8077C22.6154 22.253 22.253 22.6154 21.8077 22.6154Z" fill="white"/>
<path d="M14.7693 17.3077H16.6153C17.7607 17.3077 18.6923 16.376 18.6923 15.2307C18.6923 14.0856 17.7607 13.1539 16.6153 13.1539H14.7693C13.6239 13.1539 12.6923 14.0856 12.6923 15.2307C12.6923 16.376 13.6239 17.3077 14.7693 17.3077ZM14.7693 14.5384H16.6153C16.9971 14.5384 17.3076 14.8491 17.3076 15.2307C17.3076 15.6125 16.9971 15.923 16.6153 15.923H14.7693C14.3875 15.923 14.0769 15.6125 14.0769 15.2307C14.0769 14.8491 14.3875 14.5384 14.7693 14.5384Z" fill="white"/>
<path d="M18.6923 3.69232C18.6923 3.31 18.3823 3 18 3H6C5.61768 3 5.30768 3.31 5.30768 3.69232C5.30768 4.07465 5.61768 4.38464 6 4.38464H18C18.3823 4.38464 18.6923 4.07465 18.6923 3.69232Z" fill="white"/>
</g>
<defs>
<clipPath id="clip0_26_67">
<rect width="24" height="24" fill="white"/>
</clipPath>
</defs>
</svg>
