<svg width="24" height="24" viewBox="0 0 24 24" fill="none" xmlns="http://www.w3.org/2000/svg">
<g clip-path="url(#clip0_26_51)">
<path d="M21.902 0H2.07495C0.930908 0 0 0.930725 0 2.07495V14.0634C0 15.2075 0.930908 16.1384 2.07495 16.1384H6.68591V17.7913L4.80835 17.0403C4.19366 16.7943 3.49915 16.8691 2.95074 17.2405C2.40234 17.6116 2.07495 18.2287 2.07495 18.891C2.07495 19.4881 2.33899 20.0484 2.79968 20.4285L6.93732 23.842C7.06128 23.9442 7.21692 24 7.3775 24H17.5215C17.9035 24 18.2131 23.6904 18.2131 23.3084V19.389C18.2131 18.0994 17.634 16.9232 16.6941 16.1384H21.902C23.0462 16.1384 23.9769 15.2076 23.9769 14.0634V2.07495C23.9769 0.930725 23.0462 0 21.902 0V0ZM10.8358 10.8587H12.9108C13.2927 10.8587 13.6024 10.5491 13.6024 10.1671C13.6024 9.78516 13.2927 9.47552 12.9108 9.47552H10.4866C10.4064 9.35614 10.3136 9.2439 10.2078 9.14099C9.86884 8.81122 9.43927 8.61163 8.97656 8.56458C8.97327 8.56421 8.96979 8.56384 8.96631 8.56366C8.93756 8.56091 8.90845 8.55853 8.87933 8.55688C8.86945 8.55634 8.85956 8.55597 8.84949 8.5556C8.8266 8.55469 8.80371 8.55396 8.78064 8.55377C8.77405 8.55377 8.76746 8.55322 8.76086 8.55322C8.75171 8.55322 8.74274 8.55396 8.73358 8.55396C8.72351 8.55414 8.71344 8.55377 8.70319 8.55414C8.69531 8.55432 8.68762 8.55505 8.67975 8.55542C8.66089 8.55615 8.6424 8.55707 8.62372 8.55835C8.60907 8.55927 8.59424 8.56036 8.57959 8.56165C8.55652 8.56366 8.53345 8.56622 8.51038 8.56897C8.5025 8.56989 8.49481 8.5708 8.48694 8.5719C7.4718 8.70648 6.68573 9.57697 6.68573 10.6282V12.4495H5.53308V3.68884H17.9826V12.4495H10.8356V10.8587H10.8358ZM16.83 22.6166H7.62598L3.68005 19.3614C3.53906 19.2451 3.45831 19.0735 3.45831 18.8908C3.45831 18.6852 3.55591 18.5012 3.7262 18.3858C3.89648 18.2706 4.10376 18.2483 4.29474 18.3246L7.12079 19.455C7.33374 19.5403 7.57526 19.5143 7.76532 19.3856C7.95538 19.2568 8.06927 19.0424 8.06927 18.8128V10.6571C8.06927 10.2999 8.32617 9.99774 8.65704 9.94519C8.66455 9.94409 8.67206 9.94263 8.67975 9.94171C8.69183 9.94025 8.7041 9.9397 8.71637 9.93878C8.72791 9.93805 8.73944 9.93713 8.75116 9.93713C8.76288 9.93695 8.77441 9.9375 8.78613 9.93787C8.79785 9.93823 8.80957 9.9386 8.82129 9.9397C8.83264 9.94061 8.84381 9.94226 8.85498 9.94373C8.86707 9.94537 8.87915 9.94702 8.89105 9.94922C8.90057 9.95105 8.9101 9.95343 8.91962 9.95581C8.93298 9.95892 8.94635 9.96204 8.95935 9.96588C8.96686 9.96808 8.974 9.97083 8.98132 9.97321C8.99615 9.97815 9.0108 9.98328 9.02509 9.98932C9.0304 9.99152 9.03552 9.99408 9.04083 9.99628C9.05658 10.0032 9.07214 10.0106 9.08734 10.0188C9.09119 10.0208 9.09467 10.023 9.09851 10.0252C9.11444 10.034 9.13019 10.0433 9.1452 10.0536C9.1485 10.0556 9.15143 10.058 9.15454 10.0602C9.16974 10.0708 9.18475 10.0818 9.19904 10.0937C9.20197 10.0959 9.20471 10.0986 9.20746 10.101C9.22192 10.1133 9.23602 10.1257 9.24921 10.1389C9.25031 10.14 9.2514 10.1413 9.2525 10.1424C9.3761 10.2675 9.45245 10.439 9.45245 10.6282V15.7004C9.45245 16.0823 9.76227 16.392 10.1442 16.392H13.3151C13.6022 16.392 13.8889 16.4273 14.1676 16.4969L14.67 16.6225C15.9417 16.9404 16.83 18.078 16.83 19.389V22.6166ZM22.5938 14.0634C22.5938 14.4448 22.2834 14.755 21.902 14.755H10.8358V13.8329H18.6744C19.0563 13.8329 19.366 13.5233 19.366 13.1413V2.99707C19.366 2.61511 19.0563 2.30548 18.6744 2.30548H4.84149C4.45953 2.30548 4.1499 2.61511 4.1499 2.99707V13.1413C4.1499 13.5233 4.45953 13.8329 4.84149 13.8329H6.68591V14.755H2.07495C1.69354 14.755 1.38336 14.4448 1.38336 14.0634V2.07495C1.38336 1.69354 1.69354 1.38336 2.07495 1.38336H21.902C22.2834 1.38336 22.5938 1.69354 22.5938 2.07495V14.0634Z" fill="white"/>
<path d="M2.76654 5.53326C2.38458 5.53326 2.07495 5.8429 2.07495 6.22485V9.68317C2.07495 10.0651 2.38458 10.3748 2.76654 10.3748C3.1485 10.3748 3.45831 10.0651 3.45831 9.68317V6.22485C3.45831 5.8429 3.1485 5.53326 2.76654 5.53326Z" fill="white"/>
<path d="M20.9799 6.91644C20.3443 6.91644 19.8271 7.43372 19.8271 8.06927C19.8271 8.70483 20.3443 9.22192 20.9799 9.22192C21.6154 9.22192 22.1325 8.70483 22.1325 8.06927C22.1325 7.43372 21.6154 6.91644 20.9799 6.91644Z" fill="white"/>
</g>
<defs>
<clipPath id="clip0_26_51">
<rect width="24" height="24" fill="white"/>
</clipPath>
</defs>
</svg>
