<svg width="28" height="28" viewBox="0 0 28 28" fill="none" xmlns="http://www.w3.org/2000/svg">
<g opacity="0.3">
<path d="M10.3288 8.00718L12.5342 1.06809C12.9863 -0.354217 14.9746 -0.356671 15.43 1.06458L17.6549 8.00718H24.8986C26.3732 8.00718 26.9856 9.91687 25.7918 10.7926L19.9434 15.0826L22.1886 22.0062C22.6488 23.4252 21.0425 24.6092 19.8484 23.7311L14.0223 19.4471L8.17551 23.7567C6.98289 24.6358 5.37578 23.455 5.83294 22.0357L8.07424 15.0772L2.21068 10.7945C1.01381 9.92027 1.62506 8.00718 3.10129 8.00718H10.3288Z" fill="#2A3256"/>
<path d="M13.9999 28C13.6954 28 13.4486 27.7502 13.4486 27.4422V22.9312C13.4486 22.6232 13.6954 22.3734 13.9999 22.3734C14.3044 22.3734 14.5513 22.6232 14.5513 22.9312V27.4422C14.5513 27.7502 14.3044 28 13.9999 28Z" fill="#2A3256"/>
<path d="M27.4486 18.115C27.3922 18.115 27.3348 18.1061 27.2781 18.0876L23.0375 16.6936C22.7479 16.5984 22.5894 16.2837 22.6835 15.9907C22.7776 15.6978 23.0886 15.5377 23.3782 15.6326L27.6189 17.0266C27.9085 17.1218 28.067 17.4365 27.9729 17.7294C27.8971 17.9651 27.681 18.115 27.4486 18.115Z" fill="#2A3256"/>
<path d="M19.6903 5.76997C19.578 5.76997 19.4646 5.73533 19.3667 5.66338C19.1204 5.48233 19.0658 5.1335 19.2447 4.88429L21.8656 1.23476C22.0446 0.985546 22.3893 0.930271 22.6357 1.11138C22.882 1.29243 22.9366 1.64126 22.7577 1.89047L20.1368 5.54C20.0289 5.69027 19.8608 5.76997 19.6903 5.76997Z" fill="#2A3256"/>
<path d="M8.30968 5.76997C8.13916 5.76997 7.97106 5.69021 7.86316 5.54L5.24228 1.89052C5.06332 1.64131 5.11796 1.29248 5.36423 1.11143C5.61062 0.93027 5.95536 0.9856 6.13432 1.23481L8.75521 4.88435C8.93417 5.13356 8.87953 5.48239 8.63325 5.66344C8.53545 5.73533 8.42204 5.76997 8.30968 5.76997Z" fill="#2A3256"/>
<path d="M0.551373 18.115C0.318934 18.115 0.10287 17.9651 0.0271183 17.7294C-0.0669376 17.4365 0.091513 17.1218 0.381068 17.0266L4.62175 15.6326C4.91141 15.5374 5.22236 15.6977 5.31647 15.9907C5.41058 16.2837 5.25207 16.5984 4.96252 16.6936L0.721897 18.0876C0.665276 18.1061 0.607828 18.115 0.551373 18.115Z" fill="#2A3256"/>
</g>
</svg>
