<svg width="161" height="161" viewBox="0 0 161 161" fill="none" xmlns="http://www.w3.org/2000/svg">
<circle cx="80.5" cy="80.5" r="80.5" fill="#2171C6" fill-opacity="0.05"/>
<circle cx="80.5" cy="80.5" r="62.5" fill="#2171C6" fill-opacity="0.1"/>
<circle cx="80.4207" cy="80.4207" r="48.4207" fill="url(#paint0_linear_35_508)"/>
<mask id="mask0_35_508" style="mask-type:alpha" maskUnits="userSpaceOnUse" x="32" y="32" width="97" height="97">
<circle cx="80.4207" cy="80.4207" r="48.4207" fill="url(#paint1_linear_35_508)"/>
</mask>
<g mask="url(#mask0_35_508)">
<path d="M116.918 109.368C115.169 107.563 113.832 105.403 113.009 103.028C112.981 103.084 112.943 103.14 112.915 103.196C113.13 103.149 113.336 103.112 113.551 103.065C113.673 103.037 113.692 102.869 113.589 102.813C112.784 102.382 112.691 100.998 112.513 100.204C112.28 99.1657 112.064 98.1278 111.877 97.0898C111.485 94.9578 111.185 92.8071 110.97 90.6471C110.896 90.6845 110.83 90.7312 110.755 90.7686C112.317 91.6944 113.804 92.7323 115.197 93.9012C116.45 94.9578 117.703 96.0893 118.591 97.4732C119.545 98.9413 120.003 100.718 120.284 102.42C120.602 104.299 120.602 106.216 120.153 108.077C120.106 108.255 120.377 108.33 120.424 108.152C121.125 105.319 120.77 102.298 119.872 99.5491C119.003 96.9215 117.039 95.0233 114.935 93.3214C113.663 92.2928 112.308 91.3577 110.905 90.5255C110.821 90.4788 110.681 90.5349 110.69 90.6471C110.914 92.9567 111.242 95.2477 111.672 97.52C111.887 98.6514 112.121 99.7829 112.392 100.896C112.569 101.653 112.691 102.644 113.448 103.056C113.458 102.972 113.467 102.887 113.486 102.803C113.271 102.85 113.065 102.887 112.85 102.934C112.775 102.953 112.728 103.037 112.756 103.102C113.598 105.524 114.954 107.722 116.74 109.564C116.852 109.695 117.048 109.498 116.918 109.368Z" fill="#E8E8E8"/>
<path d="M110.998 90.8808C114.383 95.7807 116.72 101.354 117.842 107.198C117.88 107.376 118.151 107.301 118.114 107.123C116.982 101.251 114.635 95.6498 111.231 90.7312C111.138 90.591 110.895 90.7312 110.998 90.8808Z" fill="#E8E8E8"/>
<path d="M112.12 98.9414C113.532 99.25 115.019 99.596 116.001 100.746C116.113 100.886 116.319 100.681 116.197 100.55C115.187 99.3622 113.654 98.9881 112.195 98.6702C112.017 98.6328 111.942 98.904 112.12 98.9414Z" fill="#E8E8E8"/>
<path d="M115.842 98.9599C115.739 97.6507 115.945 96.351 116.469 95.1447C116.543 94.9764 116.3 94.8361 116.226 95.0044C115.683 96.2575 115.449 97.5946 115.562 98.9599C115.58 99.1375 115.861 99.1375 115.842 98.9599Z" fill="#E8E8E8"/>
<path d="M118.096 96.3886C118.769 92.1994 121.64 88.9453 124.389 85.9063C124.314 85.8595 124.23 85.8128 124.155 85.766C123.51 88.0757 125.025 90.217 125.577 92.3864C125.876 93.5833 126.016 94.8177 126.044 96.052C126.063 96.6598 126.054 97.2769 126.035 97.8847C126.025 98.184 126.026 98.4925 125.96 98.7824C125.867 99.1845 125.418 99.811 124.941 99.3902C124.885 99.465 124.829 99.5398 124.772 99.6147C125.595 100.045 125.296 101.279 125.165 101.999C124.997 102.972 124.716 103.897 124.09 104.683C123.183 105.805 121.883 106.637 121.453 108.077C121.397 108.255 121.668 108.32 121.724 108.152C122.257 106.394 124.137 105.552 124.913 103.925C125.315 103.084 125.492 102.093 125.577 101.176C125.642 100.512 125.577 99.7175 124.913 99.3809C124.782 99.3154 124.614 99.4931 124.744 99.6053C125.034 99.8671 125.436 99.8671 125.764 99.6521C126.128 99.4089 126.241 98.9601 126.278 98.5393C126.428 97.1273 126.362 95.6405 126.194 94.2379C126.026 92.8353 125.651 91.5168 125.128 90.217C124.576 88.8331 124.006 87.365 124.426 85.8595C124.464 85.7286 124.286 85.6164 124.193 85.7193C121.416 88.7957 118.507 92.0965 117.825 96.3231C117.797 96.4915 118.068 96.5663 118.096 96.3886Z" fill="#E8E8E8"/>
<path d="M123.837 86.7197C121.892 91.5167 120.685 96.5849 120.255 101.747C120.237 101.924 120.517 101.924 120.536 101.747C120.966 96.6129 122.172 91.5728 124.108 86.7945C124.173 86.6356 123.902 86.5608 123.837 86.7197Z" fill="#E8E8E8"/>
<path d="M97.1122 101.41C99.4032 101.906 101.638 100.802 103.845 100.363C106.276 99.8857 108.782 99.8857 111.223 100.325C111.4 100.353 111.475 100.091 111.298 100.054C109.035 99.6426 106.725 99.6145 104.462 99.9699C103.303 100.157 102.18 100.475 101.058 100.793C99.7959 101.139 98.4962 101.419 97.1964 101.139C97.0094 101.101 96.9346 101.363 97.1122 101.41Z" fill="#E8E8E8"/>
<path d="M125.744 100.55C127.072 100.297 128.381 100.615 129.662 100.933C130.915 101.232 132.178 101.503 133.459 101.728C135.927 102.158 138.434 102.411 140.94 102.513C141.117 102.523 141.117 102.242 140.94 102.233C138.275 102.13 135.628 101.84 133.001 101.363C131.729 101.129 130.476 100.84 129.223 100.54C128.054 100.26 126.866 100.054 125.67 100.288C125.501 100.316 125.576 100.587 125.744 100.55Z" fill="#E8E8E8"/>
<path d="M20.0519 92.7137C23.3621 91.947 26.6723 91.0586 30.0293 90.5724C33.3769 90.0955 36.7712 90.0394 40.1469 90.3293C46.6364 90.8903 52.9389 92.5922 59.2975 93.9106C62.8041 94.64 66.348 95.2385 69.9294 95.4816C70.1071 95.4909 70.1071 95.2104 69.9294 95.2011C63.3651 94.7522 56.9878 93.0784 50.5731 91.7132C44.1958 90.3667 37.7063 89.3942 31.1794 90.1422C27.3923 90.5817 23.6894 91.5823 19.9771 92.4425C19.7994 92.48 19.8742 92.7511 20.0519 92.7137Z" fill="#E8E8E8"/>
<path d="M46.6088 90.8808C52.0978 90.4039 57.4745 89.1135 62.7952 87.7295C68.2374 86.3082 73.6796 84.8682 79.1218 83.4281C84.5547 81.9974 89.9782 80.5293 95.4297 79.1361C98.1415 78.4441 100.881 77.8176 103.668 77.5558C106.352 77.3033 109.063 77.3407 111.747 77.5932C118.012 78.1729 124.109 79.8467 130.159 81.5112C130.337 81.5579 130.411 81.2868 130.234 81.24C124.913 79.7719 119.564 78.3038 114.075 77.5745C111.345 77.2098 108.577 77.0228 105.819 77.135C103.107 77.2378 100.432 77.668 97.7862 78.2664C95.0931 78.8836 92.4281 79.6223 89.7537 80.333C87.0233 81.053 84.2928 81.773 81.5624 82.493C76.0454 83.9424 70.519 85.4012 65.002 86.8505C58.952 88.4402 52.8646 90.0485 46.6088 90.5909C46.4312 90.6189 46.4312 90.8995 46.6088 90.8808Z" fill="#E8E8E8"/>
<path d="M31.5437 107.694C33.8253 107.778 36.1163 107.862 38.3979 107.946C40.6234 108.03 42.8583 108.161 45.0838 108.18C47.2532 108.199 49.3478 107.778 51.4798 107.395C53.7053 106.992 55.9588 106.703 58.2124 106.544C60.7278 106.357 63.2525 106.329 65.7679 106.431C65.9456 106.441 65.9456 106.16 65.7679 106.151C61.3543 105.964 56.9313 106.216 52.5738 106.927C50.3483 107.292 48.1415 107.853 45.888 107.899C43.6812 107.956 41.4463 107.787 39.2395 107.703C36.6774 107.61 34.1152 107.516 31.5531 107.423C31.3661 107.404 31.3661 107.684 31.5437 107.694Z" fill="#E8E8E8"/>
<path d="M28.6915 113.575C29.505 111.443 30.9357 109.583 32.7965 108.264C32.731 108.245 32.6656 108.227 32.6001 108.217C33.1238 109.414 33.4791 110.667 33.6661 111.958C33.6942 111.902 33.7316 111.846 33.7596 111.789C33.5352 111.855 33.3108 111.92 33.077 111.986C32.9835 112.014 32.9555 112.107 32.9929 112.191C33.2547 112.818 33.5446 113.529 33.2547 114.193C33.0116 114.744 32.4879 115.156 32.1232 115.614C31.4593 116.437 30.945 117.353 30.5523 118.326C30.4868 118.494 30.758 118.569 30.8235 118.4C31.3471 117.082 32.1326 116.035 33.0583 114.978C33.395 114.595 33.6474 114.174 33.6661 113.65C33.6848 113.089 33.4511 112.556 33.236 112.051C33.2079 112.117 33.1799 112.191 33.1518 112.257C33.3763 112.191 33.6007 112.126 33.8344 112.061C33.9093 112.042 33.9467 111.967 33.928 111.892C33.7316 110.574 33.3669 109.302 32.8339 108.077C32.8058 108.012 32.703 107.984 32.6375 108.03C30.7113 109.405 29.2432 111.303 28.4016 113.51C28.3642 113.669 28.626 113.744 28.6915 113.575Z" fill="#E8E8E8"/>
<path d="M24.3346 104.823C27.6074 104.187 30.955 103.944 34.2465 104.571C35.7801 104.86 37.2949 105.197 38.8472 105.375C40.4836 105.562 42.1387 105.637 43.7844 105.702C43.9621 105.711 43.9621 105.431 43.7844 105.421C42.1387 105.347 40.4836 105.281 38.8472 105.094C37.1453 104.898 35.4808 104.496 33.7883 104.206C30.6277 103.663 27.383 103.953 24.2598 104.561C24.0821 104.589 24.1569 104.86 24.3346 104.823Z" fill="#E8E8E8"/>
<path d="M36.6681 115.941C38.5383 115.642 40.4084 115.333 42.2973 115.221C44.2142 115.109 46.0657 115.268 47.9452 115.614C49.6658 115.932 51.3303 116.082 53.0882 116.044C54.9116 115.997 56.7538 115.913 58.5304 116.39C58.7081 116.437 58.7829 116.166 58.6052 116.119C56.8847 115.651 55.1174 115.708 53.35 115.754C52.415 115.782 51.4705 115.792 50.5354 115.717C49.5723 115.642 48.6185 115.446 47.6741 115.277C45.86 114.95 44.0553 114.829 42.2038 114.941C40.3243 115.062 38.4541 115.362 36.5933 115.661C36.4156 115.698 36.4904 115.969 36.6681 115.941Z" fill="#E8E8E8"/>
<path d="M88.0699 118.176C91.5765 117.671 95.1018 117.372 98.6458 117.297C102.096 117.222 105.547 117.363 108.997 117.437C109.175 117.437 109.175 117.157 108.997 117.157C105.491 117.082 101.975 116.942 98.4588 117.026C94.9522 117.11 91.4643 117.409 87.9951 117.905C87.8175 117.933 87.8923 118.195 88.0699 118.176Z" fill="#E8E8E8"/>
<path d="M103.611 120.187C104.948 119.616 106.388 120.308 107.763 120.243C108.053 120.224 108.352 120.187 108.633 120.093C109.016 119.962 109.371 119.756 109.783 119.738C110.494 119.7 111.157 119.972 111.868 119.859C112.046 119.831 111.971 119.56 111.793 119.588C110.998 119.719 110.222 119.326 109.437 119.504C109.082 119.579 108.764 119.766 108.418 119.869C108.062 119.962 107.698 119.981 107.333 119.972C106.033 119.915 104.733 119.42 103.462 119.962C103.312 120.009 103.452 120.252 103.611 120.187Z" fill="#E8E8E8"/>
<path d="M122.527 109.854C124.884 109.153 127.24 109.171 129.653 109.461C131.925 109.732 134.216 110.088 136.498 109.686C136.675 109.657 136.6 109.386 136.423 109.414C134.048 109.835 131.663 109.405 129.297 109.143C126.969 108.881 124.697 108.909 122.443 109.592C122.284 109.639 122.35 109.91 122.527 109.854Z" fill="#E8E8E8"/>
<path d="M113.13 56.3855C111.391 55.4504 110.259 53.6363 110.521 51.6259C110.755 49.7837 112.232 48.1941 114.037 47.764C115.879 47.3338 117.936 48.2035 118.937 49.8025C120.012 51.5137 119.779 53.7766 118.46 55.2914C116.964 57.012 114.346 57.2738 112.457 56.0582C112.307 55.9553 112.167 56.1984 112.317 56.3013C114.075 57.4421 116.506 57.3673 118.133 56.0114C119.751 54.6649 120.349 52.3272 119.545 50.3729C118.778 48.512 116.814 47.2964 114.804 47.3806C112.822 47.4741 111.026 48.9048 110.428 50.7843C109.68 53.1127 110.933 55.5065 112.999 56.6192C113.149 56.7127 113.289 56.4696 113.13 56.3855Z" fill="#E8E8E8"/>
<path d="M32.4226 76.8359C33.3764 75.985 34.7136 76.5647 35.4243 77.425C35.789 77.8645 36.004 78.3601 36.2846 78.8463C36.4622 79.1736 36.724 79.5009 37.1168 79.5757C37.4254 79.6318 37.6778 79.5196 37.8836 79.2952C38.0145 79.1456 38.0986 78.9492 38.2295 78.7996C38.5101 78.4723 38.8747 78.5097 39.174 78.7715C39.8285 79.3419 39.8566 80.7539 41.0067 80.6511C41.1844 80.6323 41.1844 80.3518 41.0067 80.3705C39.8098 80.4827 39.9501 78.4723 38.7999 78.2759C38.4633 78.2198 38.1921 78.3694 37.9864 78.6313C37.8555 78.7996 37.7713 79.0334 37.603 79.1736C37.1168 79.5757 36.6866 79.0146 36.4903 78.6313C36.0134 77.7523 35.5458 76.8359 34.6014 76.3777C33.8253 76.0037 32.8808 76.0411 32.2263 76.6302C32.0954 76.7517 32.2917 76.9575 32.4226 76.8359Z" fill="#E8E8E8"/>
<path d="M95.363 64.2495C95.176 63.7446 94.9516 63.1461 95.2882 62.6505C95.5968 62.211 96.1205 62.4354 96.5599 62.2952C97.1397 62.1082 97.495 61.5378 97.654 60.9861C97.841 60.3408 97.6166 59.4993 98 58.9289C98.4675 58.2276 99.4774 59.0878 100.113 58.6577C100.263 58.5548 100.123 58.3117 99.973 58.4146C99.3278 58.8541 98.4488 57.9564 97.841 58.6764C97.3548 59.2468 97.5792 60.1164 97.4202 60.7897C97.308 61.2572 97.0555 61.7528 96.6161 61.9773C96.2327 62.1736 95.7932 61.9773 95.4098 62.1736C94.5869 62.5944 94.8487 63.6417 95.1012 64.3243C95.148 64.4833 95.4191 64.4178 95.363 64.2495Z" fill="#E8E8E8"/>
<path d="M96.3733 57.6945C96.1957 57.227 96.2985 56.694 96.6445 56.32C97.0746 55.8524 97.5702 56.0394 98.1032 55.8524C98.4212 55.7402 98.6082 55.469 98.7297 55.1698C98.8045 54.9828 98.8513 54.7864 98.9168 54.5994C98.9729 54.4498 99.0383 54.2815 99.1505 54.1693C99.3188 54.0103 99.7209 53.8794 99.8238 54.2347C99.8799 54.403 100.142 54.3376 100.095 54.1599C99.9734 53.7672 99.5152 53.6269 99.1599 53.8139C98.4866 54.1599 98.7297 55.1885 98.1032 55.5345C97.7572 55.7215 97.3271 55.6093 96.9624 55.7589C96.7286 55.8618 96.5229 56.0301 96.364 56.2264C96.018 56.6659 95.9058 57.2457 96.1021 57.7693C96.1582 57.9377 96.4294 57.8628 96.3733 57.6945Z" fill="#E8E8E8"/>
<path d="M104.247 67.6813C103.967 67.2792 104.051 66.7088 104.416 66.3722C104.836 65.9794 105.444 66.1571 105.734 66.6059C106.398 67.6065 104.93 68.4855 104.229 67.6532C104.107 67.513 103.911 67.7187 104.032 67.8496C104.434 68.3265 105.182 68.3826 105.697 68.046C106.276 67.6719 106.323 66.9145 105.921 66.3815C105.528 65.8579 104.799 65.6802 104.275 66.1103C103.78 66.5124 103.63 67.2792 104.004 67.8122C104.107 67.9712 104.35 67.8309 104.247 67.6813Z" fill="#E8E8E8"/>
<path d="M105.304 69.2336C105.042 68.8689 104.715 68.4294 104.827 67.9618C104.995 67.2699 105.818 67.4475 106.192 67.859C106.501 68.205 106.613 68.7473 106.22 69.0746C105.921 69.3271 105.463 69.3738 105.192 69.0746C105.07 68.9437 104.874 69.1401 104.995 69.271C105.369 69.6731 106.005 69.6356 106.407 69.2897C106.884 68.8782 106.828 68.1956 106.454 67.7374C106.08 67.2699 105.229 66.9332 104.761 67.4662C104.238 68.0647 104.677 68.8408 105.061 69.3738C105.163 69.5234 105.407 69.3832 105.304 69.2336Z" fill="#E8E8E8"/>
<path d="M42.4195 88.7208C43.4668 89.0387 44.5328 89.2257 45.6175 89.2631C45.7951 89.2725 45.7951 88.9919 45.6175 88.9826C44.5515 88.9452 43.5042 88.7675 42.4943 88.4496C42.3166 88.3935 42.2418 88.6647 42.4195 88.7208Z" fill="#E8E8E8"/>
<path d="M112.551 81.2402C118.909 81.1934 124.894 83.5686 130.897 85.3265C132.618 85.8315 134.357 86.2897 136.115 86.6356C136.293 86.673 136.367 86.4019 136.19 86.3645C129.953 85.1301 124.071 82.4839 117.797 81.4085C116.067 81.1093 114.309 80.941 112.551 80.9597C112.373 80.9597 112.373 81.2402 112.551 81.2402Z" fill="#E8E8E8"/>
<path d="M50.0398 40.6948C50.3671 41.4802 50.7691 43.2195 51.9474 42.4434C52.3401 42.1909 52.9198 41.4522 53.3406 42.0506C53.5931 42.406 53.6118 42.8735 54.0887 43.0325C54.257 43.0886 54.3318 42.8174 54.1635 42.7613C53.724 42.6117 53.724 41.9384 53.3687 41.6673C53.1349 41.4896 52.845 41.4989 52.5926 41.6299C52.2185 41.8075 51.9474 42.2096 51.5546 42.3405C50.8533 42.5743 50.498 41.0688 50.3109 40.62C50.2361 40.461 49.965 40.5265 50.0398 40.6948Z" fill="#E8E8E8"/>
<path d="M52.9487 40.8631C53.4723 40.461 54.2391 40.648 54.5009 41.2558C54.6599 41.6392 54.7815 41.8636 55.2303 41.8917C55.4454 41.901 55.6791 41.8262 55.8942 41.8636C56.3431 41.9384 56.343 42.3312 56.4179 42.6959C56.4927 43.0606 56.661 43.3785 57.0537 43.4252C57.2314 43.4439 57.2314 43.1634 57.0537 43.1447C56.5394 43.0886 56.7545 42.032 56.3524 41.7327C55.9223 41.4148 55.2771 41.8356 54.9404 41.4428C54.7815 41.2558 54.7347 41.0034 54.5664 40.8163C54.4355 40.6574 54.2578 40.5452 54.0614 40.4704C53.6407 40.302 53.1731 40.3581 52.8178 40.6293C52.6588 40.7322 52.7991 40.9753 52.9487 40.8631Z" fill="#E8E8E8"/>
<path d="M61.364 49.6808C61.9531 49.8024 62.5796 49.4283 62.7386 48.8299C62.8882 48.2688 62.5235 47.7358 61.9905 47.5582C60.7469 47.1374 60.0549 48.8486 61.0648 49.5499C61.2144 49.6528 61.3547 49.4096 61.2051 49.3068C60.4944 48.8112 60.9339 47.5675 61.8409 47.8013C62.2337 47.9041 62.5609 48.2595 62.4861 48.6803C62.402 49.1572 61.9157 49.5031 61.4388 49.4003C61.2612 49.3722 61.1864 49.6434 61.364 49.6808Z" fill="#E8E8E8"/>
<path d="M62.2707 50.1578C62.0463 49.9802 61.7751 49.7838 61.6816 49.4939C61.5507 49.1012 61.9248 48.6336 62.3642 48.7458C62.6728 48.83 62.8879 49.1853 62.8131 49.5033C62.7196 49.8586 62.3175 50.0363 61.9809 49.9521C61.8032 49.9054 61.7284 50.1765 61.906 50.2233C62.3642 50.3355 62.8692 50.1204 63.0562 49.6716C63.2339 49.2321 62.9907 48.6991 62.5606 48.5121C62.1305 48.3344 61.6349 48.5682 61.4479 48.9796C61.186 49.55 61.6629 50.0269 62.0837 50.3542C62.2053 50.4664 62.411 50.27 62.2707 50.1578Z" fill="#E8E8E8"/>
<path d="M43.6154 68.6257C43.1853 68.2423 43.1011 67.6626 43.5219 67.2324C43.8866 66.8677 44.429 66.8771 44.7749 67.2605C45.495 68.0646 44.457 69.1119 43.6061 68.5602C43.4565 68.4574 43.3162 68.7005 43.4658 68.8034C43.9708 69.1306 44.6627 69.0184 45.0555 68.5696C45.4576 68.1021 45.336 67.4007 44.9058 66.9893C44.4477 66.5592 43.765 66.5872 43.3256 67.0267C42.7926 67.5597 42.8767 68.3358 43.4191 68.8221C43.55 68.9436 43.7463 68.7473 43.6154 68.6257Z" fill="#E8E8E8"/>
<path d="M83.4789 42.1909C84.0213 41.0033 84.7787 39.9466 85.7138 39.0396C85.8447 38.918 85.6483 38.7123 85.5174 38.8432C84.5636 39.769 83.7969 40.8443 83.2358 42.0599C83.161 42.2096 83.4041 42.3592 83.4789 42.1909Z" fill="#E8E8E8"/>
<path d="M84.6474 42.0038C85.2084 41.3119 85.8349 40.6667 86.5082 40.0775C86.6484 39.956 86.4427 39.7596 86.3118 39.8812C85.6385 40.4703 85.0214 41.1155 84.451 41.8075C84.3388 41.9477 84.5351 42.1441 84.6474 42.0038Z" fill="#E8E8E8"/>
<path d="M85.3589 42.8454C85.6114 42.6304 85.8638 42.4247 86.1163 42.2096C86.2566 42.0974 86.0508 41.8917 85.9199 42.0132C85.6675 42.2283 85.415 42.434 85.1625 42.6491C85.0222 42.7613 85.2186 42.9577 85.3589 42.8454Z" fill="#E8E8E8"/>
</g>
<mask id="mask1_35_508" style="mask-type:alpha" maskUnits="userSpaceOnUse" x="32" y="32" width="97" height="97">
<circle cx="80.4207" cy="80.4207" r="48.4207" fill="url(#paint2_linear_35_508)"/>
</mask>
<g mask="url(#mask1_35_508)">
<path d="M102.118 78.2061H101.363C101.214 78.2061 101.093 78.327 101.093 78.4762V88.6257C101.093 88.7749 101.214 88.8959 101.363 88.8959H102.118C102.267 88.8959 102.388 88.7749 102.388 88.6257V78.4762C102.388 78.327 102.267 78.2061 102.118 78.2061Z" fill="#EDEDED"/>
<path d="M97.1978 58.2012H63.052C60.5148 58.2012 58.458 60.2607 58.458 62.8014V141.789C58.458 144.329 60.5148 146.389 63.052 146.389H97.1978C99.735 146.389 101.792 144.329 101.792 141.789V62.8014C101.792 60.2607 99.735 58.2012 97.1978 58.2012Z" fill="#F4F4F4"/>
<path d="M96.5205 60.8218H91.5496V61.4206C91.5496 61.7933 91.4763 62.1623 91.3338 62.5067C91.1913 62.851 90.9825 63.1638 90.7192 63.4273C90.456 63.6908 90.1434 63.8997 89.7995 64.0422C89.4556 64.1847 89.087 64.2579 88.7147 64.2577H72.9062C72.534 64.2579 72.1654 64.1847 71.8214 64.0422C71.4775 63.8997 71.165 63.6908 70.9017 63.4273C70.6384 63.1638 70.4296 62.851 70.2871 62.5067C70.1446 62.1623 70.0713 61.7933 70.0713 61.4206V60.8218H65.4172C64.5044 60.8218 63.629 61.1849 62.9836 61.8312C62.3382 62.4775 61.9756 63.354 61.9756 64.268V140.975C61.9756 141.889 62.3382 142.766 62.9836 143.412C63.629 144.058 64.5044 144.421 65.4172 144.421H96.5205C97.4332 144.421 98.3086 144.058 98.954 143.412C99.5995 142.766 99.962 141.889 99.962 140.975V64.2739C99.9628 63.8208 99.8744 63.3721 99.7018 62.9533C99.5292 62.5345 99.2758 62.1539 98.9561 61.8333C98.6365 61.5126 98.2568 61.2583 97.8389 61.0847C97.4209 60.9111 96.9729 60.8218 96.5205 60.8218Z" fill="white"/>
<path d="M81.541 60.8348H76.4018C76.15 60.8348 75.9458 61.0393 75.9458 61.2914V61.608C75.9458 61.8602 76.15 62.0646 76.4018 62.0646H81.541C81.7928 62.0646 81.997 61.8602 81.997 61.608V61.2914C81.997 61.0393 81.7928 60.8348 81.541 60.8348Z" fill="#FEFEFE"/>
<path d="M83.6085 62.1481C83.9937 62.1481 84.306 61.8354 84.306 61.4497C84.306 61.0641 83.9937 60.7514 83.6085 60.7514C83.2234 60.7514 82.9111 61.0641 82.9111 61.4497C82.9111 61.8354 83.2234 62.1481 83.6085 62.1481Z" fill="#FEFEFE"/>
<path d="M80.3894 111.586C84.9167 111.586 88.5869 107.911 88.5869 103.377C88.5869 98.844 84.9167 95.1689 80.3894 95.1689C75.862 95.1689 72.1919 98.844 72.1919 103.377C72.1919 107.911 75.862 111.586 80.3894 111.586Z" fill="white"/>
<path d="M91.1723 84.2501C91.1722 86.42 90.5296 88.5411 89.3256 90.3452C88.1217 92.1493 86.4105 93.5554 84.4085 94.3857C82.4065 95.216 80.2035 95.4332 78.0782 95.0098C75.9529 94.5865 74.0007 93.5415 72.4685 92.0071C70.9363 90.4728 69.8929 88.5179 69.4702 86.3897C69.0475 84.2616 69.2646 82.0557 70.0939 80.051C70.9232 78.0464 72.3276 76.333 74.1294 75.1276C75.9311 73.9221 78.0494 73.2787 80.2164 73.2788C81.6552 73.2789 83.0799 73.5627 84.4091 74.1141C85.7384 74.6654 86.9462 75.4736 87.9635 76.4924C88.9809 77.5112 89.7879 78.7206 90.3384 80.0517C90.889 81.3828 91.1724 82.8094 91.1723 84.2501ZM78.9499 90.0573L87.0771 81.9191C87.1429 81.8534 87.1951 81.7754 87.2307 81.6895C87.2663 81.6036 87.2847 81.5115 87.2847 81.4184C87.2847 81.3254 87.2663 81.2333 87.2307 81.1474C87.1951 81.0615 87.1429 80.9835 87.0771 80.9178L86.0772 79.9238C86.0117 79.858 85.9339 79.8057 85.8482 79.7701C85.7625 79.7345 85.6707 79.7161 85.5779 79.7161C85.4851 79.7161 85.3932 79.7345 85.3076 79.7701C85.2219 79.8057 85.1441 79.858 85.0786 79.9238L78.4499 86.5614L75.3549 83.4549C75.222 83.3226 75.0423 83.2483 74.8549 83.2483C74.6675 83.2483 74.4878 83.3226 74.3549 83.4549L73.3549 84.4621C73.2228 84.5952 73.1486 84.7752 73.1486 84.9628C73.1486 85.1504 73.2228 85.3304 73.3549 85.4635L77.9501 90.0632C78.0157 90.129 78.0937 90.1813 78.1795 90.2169C78.2652 90.2526 78.3572 90.271 78.4501 90.271C78.543 90.271 78.635 90.2526 78.7208 90.2169C78.8066 90.1813 78.8845 90.129 78.9501 90.0632L78.9499 90.0573Z" fill="#0B5DB6"/>
</g>
<defs>
<linearGradient id="paint0_linear_35_508" x1="125.697" y1="2.75892" x2="14.7069" y2="143.934" gradientUnits="userSpaceOnUse">
<stop stop-color="#1A72DD"/>
<stop offset="1" stop-color="#244DBB"/>
</linearGradient>
<linearGradient id="paint1_linear_35_508" x1="125.697" y1="2.75892" x2="14.7069" y2="143.934" gradientUnits="userSpaceOnUse">
<stop stop-color="#1A72DD"/>
<stop offset="1" stop-color="#244DBB"/>
</linearGradient>
<linearGradient id="paint2_linear_35_508" x1="125.697" y1="2.75892" x2="14.7069" y2="143.934" gradientUnits="userSpaceOnUse">
<stop stop-color="#1A72DD"/>
<stop offset="1" stop-color="#244DBB"/>
</linearGradient>
</defs>
</svg>
