<svg width="144" height="144" viewBox="0 0 144 144" fill="none" xmlns="http://www.w3.org/2000/svg">
<g filter="url(#filter0_d_0_82)">
<mask id="mask0_0_82" style="mask-type:alpha" maskUnits="userSpaceOnUse" x="32" y="16" width="80" height="80">
<circle cx="72" cy="56" r="40" fill="#653B3B"/>
</mask>
<g mask="url(#mask0_0_82)">
<path d="M100.843 97.0387H43.157C36.9947 97.0387 32 91.8712 32 85.5024V25.8522C32 19.4833 36.9947 14.3158 43.157 14.3158H100.843C107.005 14.3158 112 19.4833 112 25.8522V85.5024C112 91.8712 107.005 97.0387 100.843 97.0387Z" fill="#FE8D74"/>
<path d="M95.0093 82.7753C94.6559 81.5824 94.0376 80.4847 93.2004 79.5644C92.3632 78.644 91.3289 77.9247 90.1747 77.4602L88.5182 76.7985L85.0029 75.3822L79.9955 73.3717L78.1957 72.6509H78.1494C78.0045 73.5899 77.5283 74.4461 76.807 75.0646C76.0857 75.683 75.1669 76.023 74.2168 76.0229H72.0166V97.0683H97.7279L95.0093 82.7753Z" fill="#167270"/>
<path d="M78.1961 72.6509L85.5133 79.1041L82.9085 83.7405L83.9832 86.9945C83.9832 86.9945 79.7177 94.3538 76.3331 97.0219H73.5049L75.2962 84.7985L78.1961 72.6509Z" fill="#2E9F9C"/>
<path d="M78.1452 72.6299C78.1452 72.6299 81.6225 84.7016 75.2959 97.0388H72.0166V77.9323L78.1452 72.6299Z" fill="#D2D3D5"/>
<path d="M78.1917 64.7184V72.0187C78.1935 72.2234 78.178 72.4278 78.1454 72.6299C78.0022 73.5689 77.527 74.4255 76.8063 75.0442C76.0855 75.6628 75.1669 76.0026 74.217 76.0018H69.7659C68.8216 76.001 67.9083 75.6643 67.1894 75.052C66.4705 74.4396 65.9929 73.5916 65.8419 72.6594C65.808 72.4504 65.791 72.2389 65.7913 72.0272V64.7268L78.1917 64.7184Z" fill="#F7D3C3"/>
<path d="M72.0044 79.1799L74.1667 78.2779L74.3816 79.4455C76.1392 78.514 78.7526 75.7574 78.7526 75.7574L78.1919 72.6509C76.248 73.9718 74.1748 75.0918 72.0044 75.9934V79.1799Z" fill="#F0F0F2"/>
<path d="M48.9862 82.7753C49.3411 81.5825 49.9606 80.4851 50.7984 79.5649C51.6361 78.6446 52.6707 77.9252 53.8251 77.4602L55.4815 76.7985L58.9968 75.3822L64.0042 73.3717L65.804 72.6509H65.8503C65.9943 73.5896 66.4696 74.4457 67.1902 75.0642C67.9108 75.6827 68.829 76.0228 69.7787 76.0229H71.9789V97.0683H46.2676L48.9862 82.7753Z" fill="#167270"/>
<path d="M65.8041 72.6509L58.4827 79.1041L61.0876 83.7405L60.0128 86.9945C60.0128 86.9945 64.2783 94.3538 67.6629 97.0219H70.4953L68.704 84.7985L65.8041 72.6509Z" fill="#2E9F9C"/>
<path d="M65.8504 72.6299C65.8504 72.6299 62.3773 84.7016 68.7039 97.0388H71.979V77.9323L65.8504 72.6299Z" fill="#D2D3D5"/>
<path d="M71.9916 79.1799L69.8336 78.2779L69.6186 79.4455C67.861 78.514 65.2434 75.7574 65.2434 75.7574L65.804 72.6509C67.7486 73.9708 69.8217 75.0907 71.9916 75.9934V79.1799Z" fill="#F0F0F2"/>
<path d="M73.1886 78.7037L74.1665 78.2822C73.745 76.1747 72.8599 75.6436 72.8599 75.6436C72.602 75.783 72.3088 75.8431 72.0169 75.8164C71.714 75.8258 71.4128 75.7667 71.1359 75.6436C71.1359 75.6436 70.293 76.1915 69.8335 78.2822L70.8113 78.7037L69.2898 97.0388H74.706L73.1886 78.7037Z" fill="#167270"/>
<path d="M86.1706 45.8353C86.12 44.5329 86.0483 43.2431 85.9724 41.9744C85.7574 38.4334 84.1976 35.1084 81.612 32.6796C79.0265 30.2507 75.6105 28.9015 72.063 28.908H71.9071C68.3596 28.9015 64.9437 30.2507 62.3581 32.6796C59.7725 35.1084 58.2127 38.4334 57.9977 41.9744C57.9219 43.2389 57.8544 44.5034 57.8039 45.789C57.8039 45.789 53.2306 45.6204 54.8112 50.6699C56.3918 55.7194 56.6995 55.9428 57.9429 55.8374C58.4571 60.8238 60.0504 63.652 64.3075 66.535C69.0789 69.7553 70.7859 69.8059 71.9745 69.7131C73.1589 69.8059 74.8661 69.7595 79.6374 66.5393C83.903 63.6562 85.4919 60.8322 86.0062 55.8459C87.2454 55.9513 87.5488 55.7447 89.1336 50.691C90.7185 45.6372 86.1748 45.8353 86.1706 45.8353Z" fill="#F7D3C3"/>
<path d="M71.4856 69.9449C70.2211 69.9449 68.3244 69.4897 64.2148 66.7163C60.0335 63.8922 58.3138 61.0893 57.7785 56.0735C56.5351 56.1283 56.1473 55.5719 54.6384 50.7584C54.1031 49.0471 54.1916 47.7236 54.9081 46.8258C55.7216 45.8016 57.0956 45.6499 57.6267 45.6288C57.6689 44.5287 57.728 43.3949 57.8038 42.1641C58.03 38.5738 59.6155 35.2046 62.2379 32.742C64.8602 30.2794 68.3224 28.9084 71.9198 28.908H72.0757C75.6738 28.9073 79.137 30.2778 81.7602 32.7406C84.3834 35.2033 85.9696 38.5731 86.1958 42.1641C86.2674 43.3949 86.3265 44.5287 86.3729 45.6288C86.904 45.6288 88.2865 45.8058 89.0915 46.8258C89.8039 47.7278 89.8965 49.0513 89.3612 50.7542C87.8481 55.5719 87.4603 56.1241 86.2169 56.0735C85.6647 61.0893 83.9619 63.8922 79.7806 66.7163C75.102 69.8733 73.3022 70.0292 71.9829 69.9239C71.827 69.9365 71.6584 69.9449 71.4856 69.9449ZM58.1578 55.614L58.1789 55.8205C58.6931 60.8195 60.337 63.5761 64.4508 66.358C69.0199 69.4391 70.7353 69.5951 71.9829 69.4981C73.2474 69.5951 74.9798 69.4433 79.5446 66.358C83.6626 63.5761 85.3023 60.8195 85.8207 55.8205L85.8418 55.6182H86.0483C87.0768 55.7025 87.3507 55.7278 88.9566 50.6066C89.4456 49.0597 89.3782 47.8796 88.7838 47.0956C87.9198 45.966 86.1959 46.025 86.179 46.025H85.9683V45.8142C85.9219 44.6593 85.8628 43.4623 85.7827 42.1599C85.563 38.6762 84.0241 35.4072 81.4792 33.0181C78.9343 30.6291 75.5747 29.2995 72.0841 29.3H71.9282C68.4381 29.2996 65.079 30.6293 62.5348 33.0185C59.9906 35.4076 58.4525 38.6766 58.2338 42.1599C58.1537 43.4623 58.0947 44.6551 58.0441 45.8184V46.0292H57.8334C57.8334 46.0292 56.0925 45.9702 55.2327 47.0956C54.6299 47.8796 54.5709 49.064 55.0557 50.6108C56.6616 55.7278 56.9397 55.7025 57.9682 55.6182L58.1578 55.614Z" fill="#E4B9A3"/>
<path d="M74.6176 41.9112V41.9407C74.6496 42.049 74.7051 42.1489 74.7803 42.2332C74.8556 42.3175 74.9486 42.384 75.0526 42.4279C75.1567 42.4719 75.2692 42.4922 75.382 42.4874C75.4949 42.4826 75.6052 42.4528 75.7051 42.4001C77.1003 41.6793 80.173 40.6172 82.39 43.6646C82.39 43.6646 81.3785 39.0787 75.1151 40.9923C74.9296 41.0517 74.7742 41.1805 74.6816 41.3517C74.5889 41.523 74.5659 41.7234 74.6176 41.9112Z" fill="#89434A"/>
<path d="M69.3825 41.9112V41.9407C69.3511 42.0489 69.296 42.1488 69.2212 42.233C69.1464 42.3173 69.0538 42.3838 68.9501 42.4278C68.8463 42.4718 68.7341 42.4922 68.6215 42.4874C68.5089 42.4826 68.3988 42.4528 68.2992 42.4001C66.9041 41.6793 63.8314 40.6172 61.6101 43.6646C61.6101 43.6646 62.6217 39.0787 68.8851 40.9923C69.07 41.0526 69.2246 41.1815 69.3171 41.3525C69.4097 41.5235 69.4331 41.7234 69.3825 41.9112Z" fill="#89434A"/>
<path d="M73.905 56.2885H73.5846C71.5614 56.1789 70.7269 56.1325 70.3729 55.6478C70.0188 55.1631 70.238 54.5729 70.5499 53.397C70.6426 53.0429 70.748 52.6383 70.8618 52.1789C71.7469 48.5076 70.8618 45.9238 70.8618 45.8986C70.8618 45.8733 72.1515 48.4823 71.2369 52.2674C71.1231 52.7352 71.0177 53.1399 70.9207 53.4982C70.651 54.5224 70.4993 55.142 70.6848 55.4159C70.8702 55.6899 72.3707 55.6056 73.3654 55.5592C73.4565 55.5551 73.5472 55.5739 73.6293 55.6137C73.7113 55.6535 73.7821 55.7131 73.8353 55.7872C73.8885 55.8613 73.9223 55.9475 73.9337 56.0379C73.9451 56.1284 73.9338 56.2203 73.9008 56.3053L73.905 56.2885Z" fill="#E4B9A3"/>
<path d="M78.0106 50.7036C79.0884 50.7036 79.9621 49.8299 79.9621 48.7521C79.9621 47.6743 79.0884 46.8005 78.0106 46.8005C76.9328 46.8005 76.0591 47.6743 76.0591 48.7521C76.0591 49.8299 76.9328 50.7036 78.0106 50.7036Z" fill="white"/>
<path d="M78.0105 49.5993C78.4784 49.5993 78.8578 49.22 78.8578 48.7521C78.8578 48.2842 78.4784 47.9049 78.0105 47.9049C77.5426 47.9049 77.1633 48.2842 77.1633 48.7521C77.1633 49.22 77.5426 49.5993 78.0105 49.5993Z" fill="#89434A"/>
<path d="M65.5134 50.7036C66.5912 50.7036 67.4648 49.8299 67.4648 48.7521C67.4648 47.6743 66.5912 46.8005 65.5134 46.8005C64.4356 46.8005 63.5618 47.6743 63.5618 48.7521C63.5618 49.8299 64.4356 50.7036 65.5134 50.7036Z" fill="white"/>
<path d="M65.5132 49.5993C65.9811 49.5993 66.3604 49.22 66.3604 48.7521C66.3604 48.2842 65.9811 47.9049 65.5132 47.9049C65.0453 47.9049 64.666 48.2842 64.666 48.7521C64.666 49.22 65.0453 49.5993 65.5132 49.5993Z" fill="#89434A"/>
<path d="M79.49 57.633C79.0053 60.6636 76.2149 62.9818 72.8514 62.9818C71.8698 62.9894 70.8979 62.7863 70.0014 62.3864C69.1048 61.9865 68.3045 61.3991 67.6543 60.6636C66.918 59.8298 66.4265 58.8087 66.2339 57.7131C66.2319 57.6823 66.2319 57.6512 66.2339 57.6204C70.6267 58.3678 75.1141 58.3678 79.5069 57.6204L79.49 57.633Z" fill="white"/>
<path d="M77.6606 59.2178C77.6606 59.2895 72.6027 61.692 68.0506 59.2178L66.2339 57.7089C66.4264 58.8045 66.918 59.8256 67.6543 60.6594L68.0252 59.8627C69.5601 60.4871 71.1987 60.8173 72.8556 60.8364C74.5142 60.7844 76.15 60.4361 77.6859 59.8079L78.0569 60.6509C78.791 59.8239 79.2825 58.8101 79.4773 57.7215L77.6606 59.2178Z" fill="#89434A"/>
<path d="M72.8516 63.1757C71.8423 63.1839 70.843 62.9755 69.921 62.5647C68.999 62.1539 68.1759 61.5502 67.5071 60.7942C66.7492 59.9368 66.243 58.8865 66.0445 57.7595C66.0404 57.7259 66.0404 57.6919 66.0445 57.6583L66.0107 57.3928L66.272 57.4434C70.6426 58.1852 75.107 58.1852 79.4775 57.4434L79.7516 57.3928L79.7052 57.6667C79.1783 60.8069 76.2405 63.1757 72.8516 63.1757ZM66.4618 57.8775C66.6738 58.864 67.1353 59.7798 67.8021 60.5371C68.4346 61.2529 69.2136 61.8243 70.0863 62.2126C70.959 62.601 71.9049 62.7972 72.8601 62.7879C75.9581 62.7879 78.6598 60.6804 79.2584 57.8775C75.0227 58.5575 70.7058 58.5575 66.4702 57.8775H66.4618Z" fill="#E4B9A3"/>
<path d="M85.6057 47.534C85.6854 47.5272 85.7657 47.537 85.8414 47.5628C85.9171 47.5886 85.9866 47.6298 86.0456 47.6839C86.1045 47.738 86.1515 47.8038 86.1836 47.877C86.2158 47.9502 86.2324 48.0294 86.2324 48.1093C86.2324 48.1893 86.2158 48.2684 86.1836 48.3417C86.1515 48.4149 86.1045 48.4806 86.0456 48.5347C85.9866 48.5888 85.9171 48.6301 85.8414 48.6559C85.7657 48.6817 85.6854 48.6915 85.6057 48.6847H85.3655C85.4162 49.1592 85.4373 49.6364 85.4287 50.1136C85.3908 53.005 83.6374 54.6404 80.3708 54.8427C80.1474 54.8427 79.9493 54.8638 79.7217 54.8638C77.1927 54.8638 75.5488 53.8438 73.8965 51.2853C72.8175 49.5994 72.6321 48.2337 72.6869 47.2642H71.3213C71.3887 48.2337 71.1863 49.6162 70.1073 51.2853C68.455 53.8438 66.828 54.8638 64.2822 54.8638C64.0756 54.8638 63.8607 54.8638 63.6373 54.8427C60.3622 54.6404 58.613 53.005 58.5793 50.1136C58.5709 49.6364 58.5921 49.1592 58.6426 48.6847H58.4023C58.3226 48.6915 58.2424 48.6817 58.1667 48.6559C58.091 48.6301 58.0214 48.5888 57.9625 48.5347C57.9036 48.4806 57.8566 48.4149 57.8244 48.3417C57.7922 48.2684 57.7756 48.1893 57.7756 48.1093C57.7756 48.0294 57.7922 47.9502 57.8244 47.877C57.8566 47.8038 57.9036 47.738 57.9625 47.6839C58.0214 47.6298 58.091 47.5886 58.1667 47.5628C58.2424 47.537 58.3226 47.5272 58.4023 47.534H58.8618C58.8722 47.4965 58.8807 47.4586 58.8871 47.4202C59.4561 45.5488 60.8681 44.5498 63.2032 44.3601C65.4287 44.1789 67.6837 44.0777 69.18 44.5161H74.8449C76.337 44.0946 78.5962 44.1789 80.8259 44.3601C83.1526 44.5498 84.5646 45.5488 85.1336 47.4202L85.1589 47.534H85.6057ZM84.6363 50.1009C84.649 49.6434 84.6279 49.1855 84.5731 48.731C84.5357 48.3643 84.4652 48.0018 84.3623 47.6478C83.8861 46.0841 82.7733 45.3127 80.7459 45.1483C79.6879 45.064 78.6384 44.9924 77.6563 44.9924C76.7589 44.9652 75.8622 45.0645 74.9925 45.2874H74.9461C74.525 45.3968 74.148 45.6339 73.867 45.9661C73.681 46.2536 73.5615 46.579 73.5172 46.9186C73.3992 47.6014 73.3739 49.0261 74.5583 50.8385C76.4045 53.6921 78.0651 54.1726 80.3159 54.0377C83.1779 53.8775 84.6026 52.5877 84.6363 50.1009ZM73.4161 45.3085H70.5794C70.6456 45.3733 70.7075 45.4423 70.7649 45.515C70.9657 45.8069 71.1088 46.1346 71.1864 46.4803H72.8091C72.8857 46.133 73.0288 45.8037 73.2305 45.5108C73.2877 45.4392 73.3497 45.3716 73.4161 45.3085ZM69.4371 50.8596C70.6257 49.0303 70.6005 47.6225 70.4783 46.9439C70.4366 46.6024 70.3169 46.275 70.1284 45.9871C69.8487 45.6534 69.4712 45.4161 69.0493 45.3085H69.003C68.1333 45.0858 67.2365 44.9865 66.3391 45.0135C65.3655 45.0135 64.3075 45.0851 63.2538 45.1694C61.2221 45.3338 60.1094 46.1051 59.6331 47.6689C59.5306 48.0215 59.46 48.3826 59.4223 48.7479C59.3764 49.1325 59.3553 49.5197 59.3591 49.907V50.122C59.3928 52.6088 60.8049 53.9155 63.6795 54.0756C65.926 54.1895 67.5825 53.7089 69.4371 50.8554V50.8596Z" fill="#89434A"/>
<g opacity="0.2">
<path opacity="0.2" d="M84.5732 48.731C84.628 49.1854 84.6491 49.6433 84.6363 50.1009C84.6026 52.5877 83.1906 53.8943 80.316 54.0545C78.0652 54.1894 76.4045 53.7089 74.5584 50.8554C73.374 49.0261 73.3993 47.6182 73.5173 46.9354C73.5616 46.5958 73.681 46.2704 73.8671 45.9828C74.1481 45.6507 74.525 45.4136 74.9461 45.3042H74.9925C75.8622 45.0813 76.7589 44.982 77.6563 45.0092C78.6258 45.0092 79.688 45.0809 80.7459 45.1652C82.7733 45.3295 83.8861 46.1009 84.3624 47.6646C84.4643 48.0131 84.5348 48.37 84.5732 48.731Z" fill="#89434A"/>
</g>
<g opacity="0.2">
<path opacity="0.2" d="M70.4782 46.9396C70.6005 47.6182 70.6257 49.0471 69.437 50.8554C67.5909 53.7089 65.926 54.1894 63.6794 54.0545C60.8048 53.8775 59.3928 52.5877 59.3591 50.1009V49.8859C59.3553 49.4986 59.3763 49.1114 59.4223 48.7268C59.46 48.3615 59.5305 48.0004 59.633 47.6478C60.1093 46.084 61.2221 45.3127 63.2537 45.1483C64.3075 45.064 65.3612 44.9923 66.3391 44.9923C67.2365 44.9654 68.1332 45.0647 69.003 45.2874H69.0493C69.4712 45.3949 69.8486 45.6323 70.1283 45.966C70.3193 46.2589 70.4391 46.5923 70.4782 46.9396Z" fill="#89434A"/>
</g>
<path d="M89.3489 35.0155C89.3489 35.0155 90.5334 31.9007 87.8105 30.4592C87.8105 30.4592 88.5565 28.044 85.5681 26.927C85.5681 26.927 85.4375 23.3949 81.8337 24.4655C81.8337 24.4655 81.3489 21.5361 78.0107 22.4634C78.0107 22.4634 76.8769 20.1957 74.331 22.2821C74.1626 21.8266 73.8529 21.4369 73.4472 21.1699C73.0415 20.903 72.561 20.7728 72.076 20.7984C70.6345 20.8364 70.1245 22.2821 70.1245 22.2821C67.5744 20.1957 66.39 22.4634 66.39 22.4634C63.0475 21.5361 62.5671 24.4655 62.5671 24.4655C58.9633 23.3949 58.8284 26.927 58.8284 26.927C55.84 28.044 56.5902 30.4592 56.5902 30.4592C53.8631 31.9007 55.0518 35.0155 55.0518 35.0155C52.8094 38.2231 55.448 39.9892 55.448 39.9892C54.2593 41.4771 54.8326 44.8701 57.6018 44.7774C60.3711 44.6847 60.0591 41.5698 60.0591 41.5698C63.4901 41.0598 62.8748 37.6204 62.8748 37.6204C67.4859 39.9892 68.9105 35.8459 68.9105 35.8459C69.9685 37.8859 74.2762 38.5898 75.5407 35.8459C75.5407 35.8459 76.9527 39.985 81.5681 37.6162C81.5681 37.6162 80.9317 41.0556 84.3584 41.5698C84.3584 41.5698 84.0424 44.6847 86.8116 44.7774C89.5808 44.8701 90.1456 41.4771 88.9569 39.9892C88.9569 39.9892 91.6081 38.2231 89.3489 35.0155Z" fill="#89434A"/>
</g>
</g>
<defs>
<filter id="filter0_d_0_82" x="0" y="0" width="144" height="144" filterUnits="userSpaceOnUse" color-interpolation-filters="sRGB">
<feFlood flood-opacity="0" result="BackgroundImageFix"/>
<feColorMatrix in="SourceAlpha" type="matrix" values="0 0 0 0 0 0 0 0 0 0 0 0 0 0 0 0 0 0 127 0" result="hardAlpha"/>
<feOffset dy="16"/>
<feGaussianBlur stdDeviation="16"/>
<feColorMatrix type="matrix" values="0 0 0 0 0 0 0 0 0 0 0 0 0 0 0 0 0 0 0.08 0"/>
<feBlend mode="normal" in2="BackgroundImageFix" result="effect1_dropShadow_0_82"/>
<feBlend mode="normal" in="SourceGraphic" in2="effect1_dropShadow_0_82" result="shape"/>
</filter>
</defs>
</svg>
