<svg width="172" height="139" viewBox="0 0 172 139" fill="none" xmlns="http://www.w3.org/2000/svg">
<g filter="url(#filter0_d_66_810)">
<rect x="40" y="15" width="92" height="59" rx="3" fill="white"/>
<path d="M94.0485 58.9977H77.95V30.0069H94.0485V58.9977Z" fill="#6C6BBD"/>
<path d="M78.9812 44.5C78.9812 38.6191 81.7291 33.3805 86.0082 30.0046C82.879 27.5359 78.9297 26.0625 74.6376 26.0625C64.4766 26.0625 56.24 34.3171 56.24 44.5C56.24 54.6829 64.4766 62.9375 74.6376 62.9375C78.9297 62.9375 82.879 61.464 86.0082 58.9954C81.7291 55.6195 78.9812 50.3809 78.9812 44.5Z" fill="#EB001B"/>
<path d="M115.76 44.5C115.76 54.6829 107.523 62.9375 97.3622 62.9375C93.0702 62.9375 89.1209 61.464 85.9905 58.9954C90.2708 55.6195 93.0187 50.3809 93.0187 44.5C93.0187 38.6191 90.2708 33.3805 85.9905 30.0046C89.1209 27.5359 93.0702 26.0625 97.3622 26.0625C107.523 26.0625 115.76 34.3171 115.76 44.5Z" fill="#0099DF"/>
<path d="M102.588 41.3479C102.852 41.3479 103.23 41.3984 103.52 41.5123L103.117 42.7471C102.84 42.6331 102.564 42.5956 102.299 42.5956C101.444 42.5956 101.016 43.1496 101.016 44.1449V47.5232H99.7078V41.4993H101.003V42.2307C101.343 41.7013 101.834 41.3479 102.588 41.3479ZM97.7543 42.6966H95.6166V45.4186C95.6166 46.023 95.8296 46.4269 96.4846 46.4269C96.8244 46.4269 97.2519 46.313 97.6406 46.0865L98.0178 47.2073C97.6032 47.4973 96.9496 47.6747 96.3839 47.6747C94.8363 47.6747 94.2965 46.8424 94.2965 45.4431V42.6966H93.0757V41.4993H94.2965V39.6717H95.6166V41.4993H97.7543V42.6966ZM81.0136 43.9819C81.1533 43.1121 81.6801 42.5192 82.6115 42.5192C83.4537 42.5192 83.995 43.0486 84.1332 43.9819H81.0136ZM85.4921 44.5113C85.4791 42.6331 84.3217 41.3479 82.636 41.3479C80.8754 41.3479 79.6432 42.6331 79.6432 44.5113C79.6432 46.4255 80.9258 47.6732 82.7253 47.6732C83.6307 47.6732 84.4599 47.4468 85.1898 46.8294L84.5478 45.8586C84.0453 46.2625 83.4033 46.4889 82.8001 46.4889C81.958 46.4889 81.1907 46.098 81.0021 45.0147H85.4662C85.4792 44.8503 85.4921 44.6873 85.4921 44.5113ZM91.2388 43.037C90.8746 42.8091 90.1333 42.5192 89.366 42.5192C88.6491 42.5192 88.2215 42.7846 88.2215 43.226C88.2215 43.6285 88.6735 43.7424 89.2393 43.8174L89.8554 43.9054C91.164 44.0958 91.9558 44.6498 91.9558 45.7086C91.9558 46.8553 90.9495 47.6747 89.2148 47.6747C88.233 47.6747 87.3276 47.4222 86.6106 46.8928L87.2268 45.8716C87.6673 46.212 88.3223 46.5019 89.2278 46.5019C90.1203 46.5019 90.5982 46.238 90.5982 45.7706C90.5982 45.4316 90.2585 45.2412 89.5416 45.1417L88.9255 45.0537C87.5795 44.8633 86.8496 44.2588 86.8496 43.2765C86.8496 42.0792 87.8314 41.3479 89.353 41.3479C90.3089 41.3479 91.1769 41.5628 91.8046 41.9783L91.2388 43.037ZM107.369 42.5928C107.1 42.5928 106.851 42.6404 106.619 42.7341C106.389 42.8293 106.189 42.962 106.02 43.1323C105.852 43.3025 105.719 43.5073 105.623 43.7453C105.527 43.9833 105.479 44.2459 105.479 44.5315C105.479 44.8185 105.527 45.0796 105.623 45.3176C105.719 45.5557 105.852 45.7605 106.02 45.9307C106.189 46.1009 106.389 46.2336 106.619 46.3288C106.851 46.424 107.1 46.4702 107.369 46.4702C107.638 46.4702 107.889 46.424 108.119 46.3288C108.351 46.2336 108.552 46.1009 108.721 45.9307C108.892 45.7605 109.025 45.5557 109.123 45.3176C109.219 45.0796 109.267 44.8185 109.267 44.5315C109.267 44.2459 109.219 43.9833 109.123 43.7453C109.025 43.5073 108.892 43.3025 108.721 43.1323C108.552 42.962 108.351 42.8293 108.119 42.7341C107.889 42.6404 107.638 42.5928 107.369 42.5928ZM107.369 41.3479C107.836 41.3479 108.267 41.4287 108.665 41.5917C109.062 41.7532 109.406 41.9768 109.696 42.261C109.986 42.5452 110.212 42.8813 110.376 43.2678C110.541 43.6559 110.623 44.0771 110.623 44.5315C110.623 44.9859 110.541 45.4071 110.376 45.7951C110.212 46.1817 109.986 46.5192 109.696 46.8034C109.406 47.0876 109.062 47.3097 108.665 47.4727C108.267 47.6343 107.836 47.7151 107.369 47.7151C106.903 47.7151 106.471 47.6343 106.074 47.4727C105.676 47.3097 105.335 47.0876 105.047 46.8034C104.759 46.5192 104.533 46.1817 104.369 45.7951C104.205 45.4071 104.123 44.9859 104.123 44.5315C104.123 44.0771 104.205 43.6559 104.369 43.2678C104.533 42.8813 104.759 42.5452 105.047 42.261C105.335 41.9768 105.676 41.7532 106.074 41.5917C106.471 41.4287 106.903 41.3479 107.369 41.3479ZM73.3724 44.5113C73.3724 43.4525 74.0648 42.5827 75.1963 42.5827C76.2775 42.5827 77.0073 43.415 77.0073 44.5113C77.0073 45.6076 76.2775 46.4385 75.1963 46.4385C74.0648 46.4385 73.3724 45.5701 73.3724 44.5113ZM78.2396 44.5113V41.4993H76.9325V42.2307C76.5164 41.6883 75.8888 41.3479 75.0337 41.3479C73.3479 41.3479 72.0279 42.6707 72.0279 44.5113C72.0279 46.3505 73.3479 47.6747 75.0337 47.6747C75.8888 47.6747 76.5164 47.3343 76.9325 46.7919V47.5232H78.2396V44.5113ZM70.8704 47.5232V43.7424C70.8704 42.3187 69.965 41.3609 68.5067 41.3479C67.7394 41.3349 66.9462 41.5744 66.3934 42.4197C65.9788 41.7518 65.3238 41.3479 64.4054 41.3479C63.7648 41.3479 63.1357 41.5368 62.6448 42.2422V41.4993H61.3376V47.5232H62.6577V44.1838C62.6577 43.138 63.2364 42.5827 64.129 42.5827C64.997 42.5827 65.4375 43.1496 65.4375 44.1709V47.5232H66.7576V44.1838C66.7576 43.138 67.3622 42.5827 68.2288 42.5827C69.1228 42.5827 69.5504 43.1496 69.5504 44.1709V47.5232H70.8704Z" fill="white"/>
</g>
<defs>
<filter id="filter0_d_66_810" x="0" y="0" width="172" height="139" filterUnits="userSpaceOnUse" color-interpolation-filters="sRGB">
<feFlood flood-opacity="0" result="BackgroundImageFix"/>
<feColorMatrix in="SourceAlpha" type="matrix" values="0 0 0 0 0 0 0 0 0 0 0 0 0 0 0 0 0 0 127 0" result="hardAlpha"/>
<feOffset dy="25"/>
<feGaussianBlur stdDeviation="20"/>
<feColorMatrix type="matrix" values="0 0 0 0 0 0 0 0 0 0 0 0 0 0 0 0 0 0 0.03 0"/>
<feBlend mode="normal" in2="BackgroundImageFix" result="effect1_dropShadow_66_810"/>
<feBlend mode="normal" in="SourceGraphic" in2="effect1_dropShadow_66_810" result="shape"/>
</filter>
</defs>
</svg>
