<svg width="102" height="27" viewBox="0 0 102 27" fill="none" xmlns="http://www.w3.org/2000/svg">
<g filter="url(#filter0_d_22_114)">
<g filter="url(#filter1_d_22_114)">
<path d="M21.184 26.0726H4.88861C2.18847 26.0726 0 23.8841 0 21.184V4.88861C0 2.18847 2.18847 0 4.88861 0H21.184C23.8841 0 26.0726 2.18847 26.0726 4.88861V21.184C26.0726 23.8841 23.8841 26.0726 21.184 26.0726Z" fill="white"/>
</g>
<path fill-rule="evenodd" clip-rule="evenodd" d="M11.5151 6.84703C11.5151 6.18006 12.0579 5.6373 12.7249 5.6373C13.3918 5.6373 13.9346 6.18006 13.9346 6.84703V7.11559C13.9346 7.14353 13.9318 7.17081 13.9263 7.19716H17.1606C17.4574 7.19716 17.6985 7.4383 17.6985 7.73508C17.6985 8.03187 17.4582 8.27301 17.1606 8.27301H8.28924C7.99245 8.27301 7.75131 8.03187 7.75131 7.73508C7.75131 7.4383 7.99164 7.19716 8.28924 7.19716H11.5234C11.518 7.17081 11.5151 7.14353 11.5151 7.11559V6.84703ZM8.96116 8.81092V16.358C8.96116 16.733 9.17326 17.0613 9.51441 17.2153C9.64103 17.2726 9.7741 17.3 9.90475 17.3C10.1273 17.3 10.3467 17.2194 10.5225 17.0637L12.725 15.1273L14.9259 17.0645C15.2074 17.3121 15.5937 17.3694 15.9349 17.2161C16.276 17.0621 16.4881 16.733 16.4881 16.3588V8.81092H8.96116ZM11.3805 17.3863L12.7249 16.2032L14.0685 17.3863V18.6227C14.0685 18.8428 13.8855 19.0259 13.6653 19.0259H11.7838C11.5636 19.0259 11.3805 18.8428 11.3805 18.6227V17.3863Z" fill="#1A72DD"/>
</g>
<path d="M33.4518 18.3213C33.3278 18.3213 33.2263 18.2875 33.1474 18.2198C33.0685 18.1409 33.029 18.0394 33.029 17.9154V6.90573C33.029 6.78171 33.0685 6.68023 33.1474 6.60131C33.2263 6.52239 33.3278 6.48293 33.4518 6.48293H34.7879C35.0246 6.48293 35.1938 6.59004 35.2952 6.80426L38.5592 12.8926L41.8571 6.80426C41.9698 6.59004 42.1389 6.48293 42.3644 6.48293H43.6836C43.8076 6.48293 43.909 6.52239 43.988 6.60131C44.0669 6.68023 44.1064 6.78171 44.1064 6.90573V17.9154C44.1064 18.0394 44.0669 18.1409 43.988 18.2198C43.909 18.2875 43.8076 18.3213 43.6836 18.3213H42.263C42.1502 18.3213 42.0544 18.2818 41.9754 18.2029C41.8965 18.124 41.8571 18.0281 41.8571 17.9154V10.5925L39.4894 15.108C39.3428 15.3561 39.1512 15.4801 38.9144 15.4801H38.221C37.9842 15.4801 37.7926 15.3561 37.646 15.108L35.2783 10.5925V17.9154C35.2783 18.0281 35.2389 18.124 35.1599 18.2029C35.0923 18.2818 34.9965 18.3213 34.8724 18.3213H33.4518Z" fill="white"/>
<path d="M50.4238 18.4904C49.1046 18.4904 48.0843 18.1522 47.3627 17.4757C46.6411 16.7879 46.2521 15.8521 46.1958 14.6683L46.1789 13.9242L46.1958 13.1801C46.2521 12.0075 46.6468 11.0773 47.3796 10.3896C48.1125 9.70183 49.1272 9.35796 50.4238 9.35796C51.7203 9.35796 52.735 9.70183 53.4679 10.3896C54.2007 11.0773 54.5954 12.0075 54.6517 13.1801C54.663 13.3153 54.6686 13.5634 54.6686 13.9242C54.6686 14.285 54.663 14.533 54.6517 14.6683C54.5954 15.8521 54.2064 16.7879 53.4848 17.4757C52.7632 18.1522 51.7429 18.4904 50.4238 18.4904ZM50.4238 16.8161C51.0213 16.8161 51.4836 16.6301 51.8105 16.258C52.1375 15.8747 52.3179 15.3166 52.3517 14.5837C52.363 14.471 52.3686 14.2511 52.3686 13.9242C52.3686 13.5972 52.363 13.3774 52.3517 13.2646C52.3179 12.5318 52.1375 11.9793 51.8105 11.6072C51.4836 11.2239 51.0213 11.0322 50.4238 11.0322C49.8262 11.0322 49.3639 11.2239 49.037 11.6072C48.71 11.9793 48.5296 12.5318 48.4958 13.2646L48.4789 13.9242L48.4958 14.5837C48.5296 15.3166 48.71 15.8747 49.037 16.258C49.3639 16.6301 49.8262 16.8161 50.4238 16.8161Z" fill="white"/>
<path d="M56.9652 18.3213C56.8525 18.3213 56.7567 18.2818 56.6777 18.2029C56.5988 18.124 56.5593 18.0281 56.5593 17.9154V6.7197C56.5593 6.59568 56.5988 6.49984 56.6777 6.43219C56.7567 6.35327 56.8525 6.31381 56.9652 6.31381H58.3351C58.4591 6.31381 58.555 6.35327 58.6226 6.43219C58.7015 6.49984 58.741 6.59568 58.741 6.7197V12.5036L61.5822 9.81458C61.616 9.79203 61.6724 9.74693 61.7513 9.67928C61.819 9.62291 61.8866 9.58345 61.9543 9.5609C62.0219 9.53835 62.1065 9.52708 62.2079 9.52708H63.7807C63.8935 9.52708 63.9837 9.5609 64.0513 9.62855C64.119 9.6962 64.1528 9.78639 64.1528 9.89914C64.1528 10.0006 64.0964 10.1021 63.9837 10.2036L60.4998 13.4676L64.4065 17.6617C64.5192 17.7745 64.5756 17.8703 64.5756 17.9492C64.5756 18.062 64.5361 18.1522 64.4572 18.2198C64.3896 18.2875 64.305 18.3213 64.2035 18.3213H62.5969C62.4391 18.3213 62.3207 18.3044 62.2418 18.2705C62.1741 18.2254 62.0839 18.1465 61.9712 18.0338L58.741 14.6345V17.9154C58.741 18.0281 58.7015 18.124 58.6226 18.2029C58.555 18.2818 58.4591 18.3213 58.3351 18.3213H56.9652Z" fill="white"/>
<path d="M66.4495 18.3213C66.3368 18.3213 66.2409 18.2818 66.162 18.2029C66.0831 18.124 66.0436 18.0281 66.0436 17.9154V6.90573C66.0436 6.78171 66.0775 6.68023 66.1451 6.60131C66.224 6.52239 66.3255 6.48293 66.4495 6.48293H70.9819C72.3349 6.48293 73.4003 6.80426 74.1783 7.44691C74.9562 8.07829 75.3452 9.00844 75.3452 10.2374C75.3452 11.4663 74.9562 12.3965 74.1783 13.0278C73.4116 13.648 72.3462 13.958 70.9819 13.958H68.462V17.9154C68.462 18.0281 68.4226 18.124 68.3437 18.2029C68.276 18.2818 68.1802 18.3213 68.0562 18.3213H66.4495ZM70.8974 12.0808C71.5513 12.0808 72.053 11.9286 72.4025 11.6242C72.752 11.3085 72.9268 10.8462 72.9268 10.2374C72.9268 9.6511 72.7577 9.19448 72.4194 8.86751C72.0812 8.52927 71.5738 8.36015 70.8974 8.36015H68.4282V12.0808H70.8974Z" fill="white"/>
<path d="M81.7409 18.4904C80.2076 18.4904 79.0125 18.1014 78.1556 17.3235C77.2987 16.5455 76.8478 15.3899 76.8027 13.8565C76.7914 13.5296 76.7858 13.0504 76.7858 12.419C76.7858 11.7764 76.7914 11.2916 76.8027 10.9646C76.8478 9.46507 77.31 8.31505 78.1894 7.51456C79.0689 6.71406 80.2527 6.31381 81.7409 6.31381C83.2292 6.31381 84.413 6.71406 85.2925 7.51456C86.1832 8.31505 86.651 9.46507 86.6961 10.9646C86.7187 11.6185 86.73 12.1033 86.73 12.419C86.73 12.7234 86.7187 13.2026 86.6961 13.8565C86.6398 15.3899 86.1831 16.5455 85.3263 17.3235C84.4694 18.1014 83.2743 18.4904 81.7409 18.4904ZM81.7409 16.5455C82.4964 16.5455 83.0995 16.32 83.5505 15.8691C84.0015 15.4068 84.2439 14.7078 84.2777 13.772C84.3003 13.0955 84.3116 12.6389 84.3116 12.4021C84.3116 12.1428 84.3003 11.6862 84.2777 11.0322C84.2439 10.0964 84.0015 9.40306 83.5505 8.95207C83.0995 8.48981 82.4964 8.25868 81.7409 8.25868C80.9968 8.25868 80.3993 8.48981 79.9483 8.95207C79.4973 9.40306 79.2549 10.0964 79.2211 11.0322C79.2098 11.3592 79.2042 11.8158 79.2042 12.4021C79.2042 12.9771 79.2098 13.4337 79.2211 13.772C79.2549 14.7078 79.4917 15.4068 79.9314 15.8691C80.3824 16.32 80.9856 16.5455 81.7409 16.5455Z" fill="white"/>
<path d="M93.0603 18.4904C92.0569 18.4904 91.1944 18.3382 90.4728 18.0338C89.7512 17.7294 89.2044 17.3291 88.8323 16.833C88.4603 16.3369 88.263 15.8014 88.2404 15.2264C88.2404 15.1249 88.2742 15.0404 88.3419 14.9727C88.4095 14.9051 88.4941 14.8712 88.5956 14.8712H90.1007C90.236 14.8712 90.3375 14.8994 90.4051 14.9558C90.4841 15.0009 90.5573 15.0798 90.625 15.1926C90.7377 15.5759 90.9971 15.8972 91.4029 16.1566C91.8088 16.4159 92.3613 16.5455 93.0603 16.5455C93.8608 16.5455 94.464 16.4159 94.8699 16.1566C95.2758 15.886 95.4787 15.5139 95.4787 15.0404C95.4787 14.7247 95.3716 14.4654 95.1574 14.2624C94.9545 14.0595 94.6444 13.8847 94.2272 13.7381C93.8213 13.5916 93.2125 13.4112 92.4007 13.197C91.0703 12.8813 90.0951 12.4641 89.475 11.9455C88.8662 11.4156 88.5617 10.6658 88.5617 9.6962C88.5617 9.04227 88.7365 8.46162 89.086 7.95427C89.4468 7.44691 89.9598 7.04666 90.625 6.75352C91.3015 6.46038 92.0851 6.31381 92.9758 6.31381C93.9003 6.31381 94.7008 6.47729 95.3773 6.80426C96.0537 7.13122 96.5667 7.54274 96.9162 8.03883C97.277 8.52364 97.4687 9.00844 97.4912 9.49325C97.4912 9.59472 97.4574 9.67928 97.3898 9.74693C97.3221 9.81458 97.2376 9.8484 97.1361 9.8484H95.5633C95.3265 9.8484 95.163 9.74129 95.0728 9.52708C95.0052 9.16629 94.7797 8.86751 94.3964 8.63074C94.013 8.3827 93.5395 8.25868 92.9758 8.25868C92.3444 8.25868 91.8483 8.37707 91.4875 8.61383C91.1267 8.8506 90.9463 9.19448 90.9463 9.64546C90.9463 9.96115 91.0365 10.2205 91.2169 10.4234C91.3973 10.6264 91.6792 10.8067 92.0625 10.9646C92.4571 11.1224 93.0209 11.2972 93.7537 11.4889C94.7459 11.7144 95.5351 11.968 96.1214 12.2499C96.7189 12.5318 97.1586 12.8869 97.4405 13.3153C97.7224 13.7438 97.8633 14.2906 97.8633 14.9558C97.8633 15.6774 97.6604 16.3088 97.2545 16.8499C96.8599 17.3799 96.2961 17.7857 95.5633 18.0676C94.8417 18.3495 94.0074 18.4904 93.0603 18.4904Z" fill="white"/>
<path d="M99.9029 18.3213C99.7902 18.3213 99.6943 18.2818 99.6154 18.2029C99.5365 18.124 99.497 18.0281 99.497 17.9154V16.2411C99.497 16.1284 99.5365 16.0325 99.6154 15.9536C99.6943 15.8634 99.7902 15.8183 99.9029 15.8183H101.594C101.707 15.8183 101.803 15.8634 101.882 15.9536C101.961 16.0325 102 16.1284 102 16.2411V17.9154C102 18.0281 101.961 18.124 101.882 18.2029C101.803 18.2818 101.707 18.3213 101.594 18.3213H99.9029Z" fill="white"/>
<defs>
<filter id="filter0_d_22_114" x="-48" y="-24" width="122.073" height="122.073" filterUnits="userSpaceOnUse" color-interpolation-filters="sRGB">
<feFlood flood-opacity="0" result="BackgroundImageFix"/>
<feColorMatrix in="SourceAlpha" type="matrix" values="0 0 0 0 0 0 0 0 0 0 0 0 0 0 0 0 0 0 127 0" result="hardAlpha"/>
<feOffset dy="24"/>
<feGaussianBlur stdDeviation="24"/>
<feColorMatrix type="matrix" values="0 0 0 0 0.101961 0 0 0 0 0.447059 0 0 0 0 0.866667 0 0 0 0.15 0"/>
<feBlend mode="normal" in2="BackgroundImageFix" result="effect1_dropShadow_22_114"/>
<feBlend mode="normal" in="SourceGraphic" in2="effect1_dropShadow_22_114" result="shape"/>
</filter>
<filter id="filter1_d_22_114" x="-20" y="-14" width="66.0725" height="66.0725" filterUnits="userSpaceOnUse" color-interpolation-filters="sRGB">
<feFlood flood-opacity="0" result="BackgroundImageFix"/>
<feColorMatrix in="SourceAlpha" type="matrix" values="0 0 0 0 0 0 0 0 0 0 0 0 0 0 0 0 0 0 127 0" result="hardAlpha"/>
<feOffset dy="6"/>
<feGaussianBlur stdDeviation="10"/>
<feColorMatrix type="matrix" values="0 0 0 0 0 0 0 0 0 0 0 0 0 0 0 0 0 0 0.06 0"/>
<feBlend mode="normal" in2="BackgroundImageFix" result="effect1_dropShadow_22_114"/>
<feBlend mode="normal" in="SourceGraphic" in2="effect1_dropShadow_22_114" result="shape"/>
</filter>
</defs>
</svg>
