<svg width="20" height="20" viewBox="0 0 20 20" fill="none" xmlns="http://www.w3.org/2000/svg">
<path d="M11.6667 8.33333L11.4167 14.1667M8.58333 14.1667L8.33333 8.33333M4.99999 5L5.70886 15.633C5.7789 16.6836 6.65151 17.5 7.70443 17.5H12.2956C13.3485 17.5 14.2211 16.6836 14.2911 15.633L15 5M4.99999 5H7.49999M4.99999 5H3.33333M15 5H16.6667M15 5H12.5M12.5 5V4.5C12.5 3.39543 11.6046 2.5 10.5 2.5H9.49999C8.39543 2.5 7.49999 3.39543 7.49999 4.5V5M12.5 5H7.49999" stroke="#F4261A" stroke-linecap="round" stroke-linejoin="round"/>
</svg>
